<svg width="457" height="248" fill="none" xmlns="http://www.w3.org/2000/svg"><g clip-path="url(#a)"><path d="M229.966 247.999c123.92 0 224.376-6.637 224.376-14.824 0-8.187-100.456-14.823-224.376-14.823-123.919 0-224.375 6.636-224.375 14.823 0 8.187 100.456 14.824 224.375 14.824Z" fill="#F2F2F2"/><path d="M221.367 70.894c-36.557 0-62.805 23.407-62.805 78.021 0 61.896 26.248 78.28 62.805 78.28s64.368-17.944 64.368-78.28c0-64.497-27.811-78.02-64.368-78.02Zm.24 135.756c-25.32 0-38.548-14.825-38.548-57.695 0-37.827 13.769-57.775 39.089-57.775 25.321 0 39.09 13.103 39.09 57.775 0 41.79-14.311 57.695-39.631 57.695Z" fill="#2F2E41"/><path d="M136.672 184.023h-15.115v-44.418a8.888 8.888 0 0 0-2.61-6.29 8.925 8.925 0 0 0-6.303-2.606h-3.542a8.927 8.927 0 0 0-6.303 2.606 8.893 8.893 0 0 0-2.611 6.29v44.418H57.555a5.087 5.087 0 0 1-5.087-4.935 5.069 5.069 0 0 1 .587-2.515l45.123-85.23a8.881 8.881 0 0 0-1.213-10.059 8.911 8.911 0 0 0-2.862-2.14L91.44 77.89a8.93 8.93 0 0 0-6.605-.402 8.909 8.909 0 0 0-5.063 4.252L24.74 184.479a12.045 12.045 0 0 0 2.113 14.216 12.088 12.088 0 0 0 8.546 3.533h64.79v28.087a10.645 10.645 0 0 0 3.13 7.54 10.701 10.701 0 0 0 7.555 3.123 10.705 10.705 0 0 0 7.555-3.123 10.644 10.644 0 0 0 3.129-7.54v-28.087h15.115a9.133 9.133 0 0 0 6.45-2.666 9.094 9.094 0 0 0 0-12.873 9.133 9.133 0 0 0-6.45-2.666ZM416.555 184.023h-15.114v-44.418a8.885 8.885 0 0 0-2.611-6.29 8.925 8.925 0 0 0-6.303-2.606h-3.542a8.935 8.935 0 0 0-6.303 2.606 8.877 8.877 0 0 0-2.61 6.29v44.418h-42.634a5.077 5.077 0 0 1-4.499-7.45l45.123-85.23a8.894 8.894 0 0 0 .575-6.968 8.898 8.898 0 0 0-4.65-5.23l-2.664-1.256a8.931 8.931 0 0 0-6.605-.402 8.906 8.906 0 0 0-5.062 4.252l-55.034 102.74a12.047 12.047 0 0 0 2.113 14.216 12.1 12.1 0 0 0 8.547 3.533h64.79v28.087c0 2.828 1.125 5.54 3.129 7.54s4.721 3.123 7.555 3.123c2.834 0 5.551-1.123 7.555-3.123 2.004-2 3.13-4.712 3.13-7.54v-28.087h15.114a9.133 9.133 0 0 0 6.45-2.666 9.094 9.094 0 0 0 0-12.873 9.133 9.133 0 0 0-6.45-2.666Z" fill="#1A75FF"/><path d="M140.842 178.822h-15.115v-44.418a8.878 8.878 0 0 0-2.611-6.29 8.915 8.915 0 0 0-6.303-2.606h-3.542a8.925 8.925 0 0 0-6.303 2.606 8.888 8.888 0 0 0-2.61 6.29v44.418H61.724a5.092 5.092 0 0 1-4.358-2.457 5.07 5.07 0 0 1-.141-4.993l45.123-85.23a8.894 8.894 0 0 0 .575-6.968 8.899 8.899 0 0 0-4.65-5.231l-2.664-1.255a8.93 8.93 0 0 0-6.605-.402 8.91 8.91 0 0 0-5.062 4.252l-55.034 102.74a12.05 12.05 0 0 0 2.113 14.216 12.1 12.1 0 0 0 8.547 3.533h64.79v28.087a10.647 10.647 0 0 0 3.129 7.54 10.69 10.69 0 0 0 7.555 3.123c2.834 0 5.552-1.123 7.555-3.123 2.004-2 3.13-4.712 3.13-7.54v-28.087h15.115a9.148 9.148 0 0 0 6.449-2.666 9.095 9.095 0 0 0 2.671-6.436 9.078 9.078 0 0 0-2.671-6.437 9.148 9.148 0 0 0-6.449-2.666ZM424.373 178.822h-15.114v-44.418a8.89 8.89 0 0 0-2.611-6.29 8.925 8.925 0 0 0-6.303-2.606h-3.542a8.93 8.93 0 0 0-6.303 2.606 8.882 8.882 0 0 0-2.611 6.29v44.418h-42.633a5.093 5.093 0 0 1-4.359-2.457 5.071 5.071 0 0 1-.14-4.993l45.122-85.23a8.878 8.878 0 0 0-1.213-10.059 8.911 8.911 0 0 0-2.862-2.14l-2.663-1.255a8.932 8.932 0 0 0-6.605-.402 8.911 8.911 0 0 0-5.063 4.252l-55.033 102.74a12.047 12.047 0 0 0 2.113 14.216 12.1 12.1 0 0 0 8.547 3.533h64.789v28.087c0 2.828 1.126 5.54 3.13 7.54s4.721 3.123 7.555 3.123c2.834 0 5.551-1.123 7.555-3.123 2.004-2 3.129-4.712 3.129-7.54v-28.087h15.115a9.125 9.125 0 0 0 8.427-5.619 9.095 9.095 0 0 0-1.977-9.92 9.133 9.133 0 0 0-6.45-2.666ZM229.706 66.213c-36.557 0-62.805 23.406-62.805 78.02 0 61.896 26.248 78.281 62.805 78.281s64.368-17.945 64.368-78.281c0-64.497-27.811-78.02-64.368-78.02Zm.24 135.755c-25.32 0-38.548-14.824-38.548-57.695 0-37.827 13.769-57.775 39.09-57.775 25.32 0 39.089 13.103 39.089 57.775 0 41.79-14.311 57.695-39.631 57.695Z" stroke="#3F3D56" stroke-miterlimit="10"/><path d="M200.403 13.222a5.482 5.482 0 0 0 5.488-5.476 5.482 5.482 0 0 0-5.488-5.476 5.481 5.481 0 0 0-5.487 5.476 5.481 5.481 0 0 0 5.487 5.476Z" fill="#2F2E41"/><path d="M213.788 39.804c8.5 0 15.392-8.91 15.392-19.902S222.288 0 213.788 0c-8.501 0-15.392 8.91-15.392 19.902s6.891 19.902 15.392 19.902Z" fill="#2F2E41"/><path opacity=".1" d="M213.788 33.793c-7.711 0-14.097-7.33-15.218-16.896a25.796 25.796 0 0 0-.174 3.005c0 10.991 6.891 19.902 15.392 19.902 8.5 0 15.392-8.91 15.392-19.902 0-1.005-.058-2.008-.175-3.006-1.121 9.566-7.507 16.897-15.217 16.897Z" fill="#000"/><path d="M245.109 78.188c-.331 1.355-1.756 2.44-3.335 3.2-3.318 1.594-7.412 2.07-11.382 2.23a19.25 19.25 0 0 1-3.039-.056 8.744 8.744 0 0 1-5.211-2.39.719.719 0 0 1-.325-.61.714.714 0 0 1 .344-.598c2.113-2.317 5.641-3.738 9.194-4.761 2.695-.776 7.393-2.785 10.332-2.514 2.847.263 3.839 3.787 3.422 5.499Z" fill="#3F3D56"/><path opacity=".1" d="M245.109 78.188c-.331 1.355-1.756 2.44-3.335 3.2-3.318 1.594-7.412 2.07-11.382 2.23a19.25 19.25 0 0 1-3.039-.056 8.744 8.744 0 0 1-5.211-2.39.719.719 0 0 1-.325-.61.714.714 0 0 1 .344-.598c2.113-2.317 5.641-3.738 9.194-4.761 2.695-.776 7.393-2.785 10.332-2.514 2.847.263 3.839 3.787 3.422 5.499Z" fill="#000"/><path d="M202.914 68.055a8.375 8.375 0 0 0-.51 6.399 11.175 11.175 0 0 0 3.756 5.305c4.293 3.434 10.203 3.907 15.706 3.86 4.822-.043 9.638-.372 14.422-.987a17.27 17.27 0 0 0 4.679-1.084c1.796-.776 3.374-2.198 4.014-4.044.639-1.846.185-4.106-1.333-5.338-1.335-1.082-3.175-1.23-4.891-1.334l-9.82-.589c.97-.98 2.262-1.534 3.443-2.246 1.568-.945 2.609-2.532 3.749-3.963a54.822 54.822 0 0 1 5.716-5.865c.32 1.83 1.48 3.332 2.845 4.595 1.365 1.262 2.938 2.279 4.357 3.48 3.436 2.912 5.911 6.863 9.525 9.552a18.654 18.654 0 0 0 6.826-3.401l-1.405-2.54a1.673 1.673 0 0 0-.529-.658c-.397-.244-.91-.119-1.372-.188-1.234-.184-1.772-1.606-2.257-2.754-1.329-3.15-3.874-5.594-6.047-8.236a41.583 41.583 0 0 1-4.252-6.25c-.73-1.317-1.399-2.687-2.389-3.822-.991-1.134-2.38-2.026-3.888-2.029-1.332-.003-2.561.672-3.706 1.351a97.966 97.966 0 0 0-10.051 6.834c-1.678 1.3-3.345 2.673-5.313 3.47-.828.335-1.702.565-2.496.973-1.393.715-2.449 1.925-3.587 2.998-4.057 3.83-9.611 6.312-15.192 6.51Z" fill="#3F3D56"/><path d="M223.448 40.794a10.066 10.066 0 0 1-.737 3.41 4.262 4.262 0 0 1-2.453 2.365c-.781.209-1.6.235-2.392.078a4.633 4.633 0 0 1-1.949-.663c-.921-.632-1.38-1.759-1.547-2.862-.168-1.102-.093-2.228-.2-3.338a18.16 18.16 0 0 0-.511-2.655l-.218-.867a38.716 38.716 0 0 1-.205-.866 18.852 18.852 0 0 1-.161-.817 13.5 13.5 0 0 1-.099-.698 7.782 7.782 0 0 0-.344-2.042 6.2 6.2 0 0 0-.717-1.211 8.694 8.694 0 0 1-.348-.528 2.498 2.498 0 0 1-.414-1.59 1.4 1.4 0 0 1 .099-.35.764.764 0 0 0 .524-.488 1.457 1.457 0 0 0-.063-.755 4.815 4.815 0 0 0-.408-.971c-.113-.203-.494-.57-.497-.802-.005-.467.91-.844 1.281-1.028a7.158 7.158 0 0 1 3.657-.74c.809.055 1.687.303 2.134.98.402.61.348 1.401.52 2.11.018.104.062.2.127.283.087.08.197.13.314.144.199.04.402.047.603.024h.001a2.113 2.113 0 0 0 1.023-.395 5.373 5.373 0 0 1 .522-.113c.67 2.112.757 4.376 1.306 6.527.272 1.07.661 2.126.716 3.227.004.048.005.097.007.147.008.354-.02.71-.006 1.063.006.159.023.317.054.473.06.25.135.498.223.74l.004.012a3.278 3.278 0 0 1 .109.406l.001.004c.099.59.114 1.191.044 1.786Z" fill="#FBBEBE"/><path d="M214.055 26.982c4.362 0 7.897-3.528 7.897-7.88 0-4.353-3.535-7.881-7.897-7.881-4.361 0-7.897 3.528-7.897 7.88 0 4.353 3.536 7.881 7.897 7.881ZM264.19 62.04a12.892 12.892 0 0 0-2.227-5.987l.616 3.645a1.37 1.37 0 0 1-1.432-.44 4.377 4.377 0 0 1-.751-1.39 28.598 28.598 0 0 0-3.492-6.255c-5.027-.418-9.997-2.498-14.418-4.922-4.422-2.423-8.56-5.328-12.924-7.854a18.512 18.512 0 0 0-2.358-1.202c-1.365-.546-2.898-.83-4.192-1.472a5.373 5.373 0 0 1-1.087-.69 4.365 4.365 0 0 1-.396-.363 8.631 8.631 0 0 1-1.514-2.527c-.694-1.533-.942-3.383-1.635-4.916.318-.298.676-.55 1.064-.75h.001a5.077 5.077 0 0 1 1.545-.508 4.927 4.927 0 0 1 2.335.185c1.1.371 2.028 1.113 2.953 1.814a48.594 48.594 0 0 1 4.316 3.417c.763.729 1.459 1.53 2.28 2.193.681.525 1.4 1 2.15 1.422 4.44 2.64 8.88 5.279 13.321 7.917 1.503.894 3.007 1.787 4.477 2.733 2.232 1.437 4.384 2.995 6.535 4.55l3.801 2.751a4.13 4.13 0 0 1 1.078.994c.262.446.425.943.478 1.457a13.297 13.297 0 0 1-.524 6.198Z" fill="#FBBEBE"/><path d="M225.406 46.719c-.532 2.384-2.947 3.825-4.209 5.92-1.569 2.6-.929 5.62-.34 8.598l-3.23 2.777c-.594.509-1.188 1.02-1.828 1.47a24.412 24.412 0 0 1-2.918 1.673l-2.859 1.468c-.885.497-1.824.894-2.798 1.183-1.878.48-3.872.144-5.73-.413a2.602 2.602 0 0 1-.627-.255 1.038 1.038 0 0 1-.297-.268 1.658 1.658 0 0 1-.188-1.078c.188-3.12.953-6.175 1.714-9.207a36.075 36.075 0 0 1 1.637-5.34 36.069 36.069 0 0 1 2.304-4.308 29.052 29.052 0 0 1 3.372-4.888 7.838 7.838 0 0 0 1.564-2.011c.475-1.082.292-2.323.388-3.501.074-.885.309-1.75.695-2.55v-.001c.206-.431.454-.841.741-1.224l.389.905.255.591.326.759.935 2.17c.336.911.815 1.763 1.418 2.524a2.763 2.763 0 0 0 2.469 1.158 2.764 2.764 0 0 0 2.263-1.52c.45-.797.775-1.658.966-2.553a8.141 8.141 0 0 0 .107-3.326c-.322-2.126-1.229-4.298-1.887-6.274a6.337 6.337 0 0 1-.459-2.067c.001-.08.009-.16.024-.238l.012-.062a5.077 5.077 0 0 1 1.354-.419l1.742 9.393.041.222c.083.448.168.897.261 1.345.085.406.176.81.277 1.212l.004.012c.035.137.071.272.109.407l.001.004c.103.368.218.734.348 1.095.787 2.173 2.159 4.36 1.654 6.617Z" fill="#1A75FF"/><path d="M257.455 80.227c-.025.46.064.917.259 1.334.494.901 1.68 1.106 2.706 1.19a80.282 80.282 0 0 0 17.978-.546c.323-.022.637-.119.916-.283.846-.593.324-2.036-.6-2.498-.924-.462-2.021-.35-3.035-.55a9.584 9.584 0 0 1-2.841-1.23 144 144 0 0 1-6.079-3.688c-1.189-.762-2.592-1.575-3.93-1.123-3.627 1.224-5.398 3.49-5.374 7.394Z" fill="#3F3D56"/><path d="M213.267 35.228v.001c-.009.056-.019.11-.031.166a13.1 13.1 0 0 1-.049.273c-.166.849-.37 1.693-.604 2.532-.642 2.317-1.503 4.597-2.357 6.844a82343.25 82343.25 0 0 1-6.876 18.073c-.578 1.518-1.155 3.036-1.812 4.523-.219.495-.446.995-.67 1.5-.806 1.807-1.58 3.673-1.837 5.597a11.632 11.632 0 0 0-.081 3.837c.257 1.261 1.024 2.493 2.224 2.959.586.228 1.426.534 1.265 1.142-.087.334-.467.497-.808.553a3.12 3.12 0 0 1-2.538-.73c-.641-.567-1.134-1.45-1.986-1.545-.591-.064-1.134.288-1.675.536-2.206 1.005-4.775.301-7.092-.413.182-.936 1.124-1.553 2.06-1.74.935-.189 1.903-.055 2.857-.08.306.016.609-.062.869-.224.233-.213.396-.491.468-.798a33.468 33.468 0 0 0 1.367-5.581c.308-1.98.436-3.993.875-5.95.342-1.526.869-3.005 1.321-4.503a95.419 95.419 0 0 0 2.153-9.372c.282-1.312.485-2.64.606-3.976.076-1.109.04-2.223.147-3.327.18-1.438.48-2.857.898-4.244l1.227-4.537c.607-2.238 1.257-4.562 2.794-6.3a5.927 5.927 0 0 1 4.265-2.034c.305 0 .609.032.907.098l.148.037c.324.085.636.213.925.382.474-.3.715-.195 1.029.269.276.49.406 1.049.375 1.61a22.143 22.143 0 0 1-.364 4.422Z" fill="#FBBEBE"/><path d="m213.787 37-.02.02-.108.108-1.076 1.073-.527-2.21-1.809-7.58c.305 0 .609.033.906.098a1.4 1.4 0 0 1 .063-.255l.086.292.613 2.082 1.16 3.95.192.651v.001l.52 1.77Z" fill="#1A75FF"/><path d="M220.616 12.82a5.334 5.334 0 0 1-2.152 4.276 5.337 5.337 0 0 1-3.206 1.071h-6.421a5.359 5.359 0 0 1-3.781-1.568 5.338 5.338 0 0 1 0-7.552 5.359 5.359 0 0 1 3.781-1.568h6.421a5.378 5.378 0 0 1 3.783 1.568 5.354 5.354 0 0 1 1.575 3.773ZM226.637 13.222a5.482 5.482 0 0 0 5.487-5.476 5.482 5.482 0 0 0-5.487-5.476 5.482 5.482 0 0 0-5.488 5.476 5.482 5.482 0 0 0 5.488 5.476Z" fill="#2F2E41"/><path opacity=".1" d="M226.503 2.271c-.068 0-.134.003-.201.006a5.49 5.49 0 0 1 3.75 1.67 5.47 5.47 0 0 1 0 7.601 5.49 5.49 0 0 1-3.75 1.671 5.493 5.493 0 0 0 4.081-1.599 5.47 5.47 0 0 0 0-7.745 5.493 5.493 0 0 0-3.88-1.604ZM200.403 2.271c.067 0 .134.003.201.006a5.49 5.49 0 0 0-3.75 1.67 5.47 5.47 0 0 0 0 7.601 5.49 5.49 0 0 0 3.75 1.671 5.494 5.494 0 0 1-4.078-1.6 5.472 5.472 0 0 1 0-7.742 5.494 5.494 0 0 1 3.877-1.606ZM218.464 17.096a5.338 5.338 0 0 1-3.206 1.071h-6.421a5.333 5.333 0 0 1-3.205-1.071h12.832Z" fill="#000"/><path d="M259.929 56.777s1.384 3.978 2.65 2.919l-1.009-5.2-1.641 2.281Z" fill="#FBBEBE"/><path d="M428.276 178.095a8.872 8.872 0 0 0 7.85-.896 8.822 8.822 0 0 0 .979-14.078 8.862 8.862 0 0 0-7.65-1.97l.222 4.547-2.156-3.897a8.808 8.808 0 0 0-4.544 4.977 8.822 8.822 0 0 0 .896 7.824 8.851 8.851 0 0 0 4.403 3.493Z" fill="#57B894"/><path d="M438.943 230.835c-.761-3.867 2.537-7.296 5.794-9.524 3.257-2.229 7.063-4.418 8.174-8.2 1.598-5.435-3.16-10.413-6.863-14.705a53.207 53.207 0 0 1-7.029-10.424c-.77-1.5-1.478-3.067-1.681-4.74-.292-2.409.484-4.807 1.265-7.105a513.395 513.395 0 0 1 8.349-22.774" stroke="#3F3D56" stroke-miterlimit="10"/><path d="M428.641 176.923a8.868 8.868 0 0 0 10.655-3.823 8.822 8.822 0 0 0-1.826-11.151 8.86 8.86 0 0 0-7.65-1.97l.222 4.548-2.156-3.897a8.808 8.808 0 0 0-4.545 4.976 8.822 8.822 0 0 0 .897 7.824 8.851 8.851 0 0 0 4.403 3.493Z" stroke="#3F3D56" stroke-miterlimit="10"/><path d="M437.861 151.792a8.833 8.833 0 0 1 6.372-5.602l.729 4.323 1.351-4.54a8.86 8.86 0 0 1 5.194 1.776 8.831 8.831 0 0 1 3.145 4.492 8.814 8.814 0 0 1-.114 5.478 8.835 8.835 0 0 1-3.329 4.357 8.864 8.864 0 0 1-10.436-.278 8.832 8.832 0 0 1-2.912-10.006Z" fill="#57B894"/><path d="M438.347 150.232a8.83 8.83 0 0 1 6.372-5.603l.729 4.323 1.351-4.54a8.859 8.859 0 0 1 5.194 1.777 8.824 8.824 0 0 1-.298 14.327 8.87 8.87 0 0 1-10.436-.279 8.824 8.824 0 0 1-2.912-10.005Z" stroke="#3F3D56" stroke-miterlimit="10"/><path d="M444.494 198.494a8.865 8.865 0 0 0 10.943-4.369 8.817 8.817 0 0 0 .614-6.265 8.842 8.842 0 0 0-3.722-5.082l-1.039 3.489-.736-4.374a8.862 8.862 0 0 0-9.578 2.332 8.831 8.831 0 0 0-2.312 6.359 8.834 8.834 0 0 0 5.83 7.91Z" fill="#57B894"/><path d="M444.915 196.912a8.868 8.868 0 0 0 6.307-.103 8.84 8.84 0 0 0 4.637-4.266 8.822 8.822 0 0 0-3.109-11.347l-1.038 3.489-.737-4.374a8.867 8.867 0 0 0-9.578 2.332 8.825 8.825 0 0 0 3.518 14.269Z" stroke="#3F3D56" stroke-miterlimit="10"/><path d="M435.278 213.165a8.824 8.824 0 0 0 2.912 5.138 8.864 8.864 0 0 0 11.142.374 8.827 8.827 0 0 0 3.252-4.93 8.811 8.811 0 0 0-.588-5.874 8.854 8.854 0 0 0-15.012-1.626l3.944 5.924-5.389-3.144a8.725 8.725 0 0 0-.261 4.138Z" fill="#57B894"/><path d="M435.642 211.993a8.834 8.834 0 0 0 2.912 5.138 8.861 8.861 0 0 0 11.143.374 8.817 8.817 0 0 0-1.5-14.995 8.866 8.866 0 0 0-10.849 2.565l3.944 5.924-5.389-3.144a8.738 8.738 0 0 0-.261 4.138Z" stroke="#3F3D56" stroke-miterlimit="10"/><path d="M3.831 199.615a5.831 5.831 0 0 0 5.158-.588 5.808 5.808 0 0 0 2.632-4.465 5.791 5.791 0 0 0-1.989-4.785 5.828 5.828 0 0 0-5.026-1.294l.145 2.988-1.416-2.561a5.787 5.787 0 0 0-2.986 3.27 5.795 5.795 0 0 0 .589 5.141 5.811 5.811 0 0 0 2.893 2.294Z" fill="#57B894"/><path d="M10.84 234.268c-.5-2.541 1.666-4.794 3.806-6.258 2.14-1.464 4.64-2.903 5.37-5.387 1.05-3.571-2.075-6.842-4.508-9.662a34.941 34.941 0 0 1-4.618-6.849 9.411 9.411 0 0 1-1.105-3.114c-.192-1.583.318-3.158.831-4.668a337.138 337.138 0 0 1 5.486-14.963" stroke="#3F3D56" stroke-miterlimit="10"/><path d="M4.07 198.846a5.821 5.821 0 0 0 7-2.512 5.797 5.797 0 0 0-1.198-7.326 5.819 5.819 0 0 0-5.027-1.294l.146 2.987-1.416-2.56a5.786 5.786 0 0 0-2.986 3.269 5.794 5.794 0 0 0 .589 5.141 5.813 5.813 0 0 0 2.893 2.295Z" stroke="#3F3D56" stroke-miterlimit="10"/><path d="M10.129 182.335a5.811 5.811 0 0 1 4.186-3.681l.48 2.841.887-2.983a5.823 5.823 0 0 1 3.413 1.167 5.791 5.791 0 0 1 1.991 6.55 5.822 5.822 0 0 1-11.075-.296 5.792 5.792 0 0 1 .118-3.598Z" fill="#57B894"/><path d="M10.448 181.31a5.796 5.796 0 0 1 4.186-3.681l.48 2.84.887-2.983a5.824 5.824 0 0 1 3.413 1.168 5.8 5.8 0 0 1 1.991 6.55 5.81 5.81 0 0 1-5.646 3.887 5.83 5.83 0 0 1-3.398-1.207 5.803 5.803 0 0 1-1.913-6.574Z" stroke="#3F3D56" stroke-miterlimit="10"/><path d="M14.487 213.018a5.824 5.824 0 0 0 7.19-2.871 5.793 5.793 0 0 0-2.043-7.455l-.682 2.293-.484-2.874a5.831 5.831 0 0 0-6.294 1.532 5.794 5.794 0 0 0 .37 8.203 5.831 5.831 0 0 0 1.943 1.172Z" fill="#57B894"/><path d="M14.763 211.979a5.815 5.815 0 0 0 7.19-2.871 5.793 5.793 0 0 0-2.042-7.454l-.682 2.292-.484-2.874a5.807 5.807 0 0 0-2.258-.347 5.81 5.81 0 0 0-5.207 3.819 5.791 5.791 0 0 0 .198 4.437 5.81 5.81 0 0 0 3.285 2.998Z" stroke="#3F3D56" stroke-miterlimit="10"/><path d="M8.431 222.657a5.8 5.8 0 0 0 1.914 3.376 5.82 5.82 0 0 0 9.457-2.994 5.791 5.791 0 0 0-.386-3.859 5.809 5.809 0 0 0-2.736-2.754 5.827 5.827 0 0 0-7.128 1.686l2.592 3.892-3.541-2.066a5.74 5.74 0 0 0-.172 2.719Z" fill="#57B894"/><path d="M8.67 221.888a5.797 5.797 0 0 0 1.914 3.375 5.82 5.82 0 0 0 7.32.246 5.79 5.79 0 0 0 1.75-7.098 5.821 5.821 0 0 0-9.864-1.069l2.593 3.893-3.54-2.066a5.739 5.739 0 0 0-.172 2.719Z" stroke="#3F3D56" stroke-miterlimit="10"/><path d="M204.574 144.801c3.993 0 7.231-4.182 7.231-9.339 0-5.158-3.238-9.339-7.231-9.339-3.994 0-7.231 4.181-7.231 9.339 0 5.157 3.237 9.339 7.231 9.339ZM243.919 145.012c3.994 0 7.231-4.182 7.231-9.339 0-5.158-3.237-9.339-7.231-9.339-3.994 0-7.231 4.181-7.231 9.339 0 5.157 3.237 9.339 7.231 9.339ZM238.389 163.266c0 4.219-5.903 7.641-13.186 7.641-7.282 0-13.186-3.422-13.186-7.641 0-3.655 4.428-6.711 10.345-7.458a21.422 21.422 0 0 1 2.841-.183c1.592-.005 3.18.166 4.735.51 4.942 1.099 8.451 3.879 8.451 7.131Z" fill="#2F2E41"/><path d="M206.275 142.678c3.994 0 7.231-4.182 7.231-9.339 0-5.158-3.237-9.339-7.231-9.339-3.994 0-7.231 4.181-7.231 9.339 0 5.157 3.237 9.339 7.231 9.339ZM245.62 142.89c3.994 0 7.232-4.181 7.232-9.338 0-5.158-3.238-9.339-7.232-9.339-3.993 0-7.231 4.181-7.231 9.339 0 5.157 3.238 9.338 7.231 9.338ZM226.905 168.784c7.282 0 13.186-3.421 13.186-7.641 0-4.22-5.904-7.641-13.186-7.641-7.283 0-13.186 3.421-13.186 7.641 0 4.22 5.903 7.641 13.186 7.641Z" stroke="#3F3D56" stroke-miterlimit="10"/><path d="M230.095 156.771a2.09 2.09 0 0 1-.561 1.439 1.844 1.844 0 0 1-1.353.598h-4.254a1.98 1.98 0 0 1-1.914-2.037c-.002-.414.12-.819.349-1.164a20.152 20.152 0 0 1 2.841-.195 20.29 20.29 0 0 1 4.735.544c.105.258.158.535.157.815ZM206.275 132.915c1.175 0 2.127-.95 2.127-2.123a2.124 2.124 0 0 0-2.127-2.122c-1.174 0-2.127.95-2.127 2.122 0 1.173.953 2.123 2.127 2.123ZM245.833 132.915c1.175 0 2.127-.95 2.127-2.123a2.124 2.124 0 0 0-2.127-2.122c-1.174 0-2.126.95-2.126 2.122 0 1.173.952 2.123 2.126 2.123Z" fill="#fff"/><path opacity=".3" d="M247.96 152.866c1.175 0 2.127-.95 2.127-2.122a2.124 2.124 0 0 0-2.127-2.123c-1.175 0-2.127.95-2.127 2.123 0 1.172.952 2.122 2.127 2.122ZM196.066 152.866c1.175 0 2.127-.95 2.127-2.122a2.124 2.124 0 0 0-2.127-2.123c-1.174 0-2.126.95-2.126 2.123 0 1.172.952 2.122 2.126 2.122Z" fill="#1A75FF"/></g><defs><clipPath id="a"><path fill="#fff" d="M0 0h457v248H0z"/></clipPath></defs></svg>