<svg width="438" height="354" fill="none" xmlns="http://www.w3.org/2000/svg"><g clip-path="url(#a)"><path opacity=".1" d="M225.31 354.004c109.317 0 197.937-79.246 197.937-177.002C423.247 79.247 334.627 0 225.31 0 115.992 0 27.373 79.247 27.373 177.002c0 97.756 88.619 177.002 197.937 177.002Z" fill="#1A75FF"/><path opacity=".1" d="M72.983 278.878c40.307 0 72.983-5.074 72.983-11.334s-32.676-11.335-72.983-11.335S0 261.284 0 267.544c0 6.26 32.676 11.334 72.983 11.334ZM108.061 332.878c15.678 0 28.387-2.63 28.387-5.875s-12.709-5.876-28.387-5.876c-15.677 0-28.387 2.631-28.387 5.876 0 3.245 12.71 5.875 28.387 5.875ZM302.031 310.273c15.678 0 28.387-2.631 28.387-5.876 0-3.245-12.709-5.876-28.387-5.876s-28.387 2.631-28.387 5.876c0 3.245 12.709 5.876 28.387 5.876ZM205.706 305.341c25.495 0 46.162-3.508 46.162-7.835 0-4.328-20.667-7.836-46.162-7.836-25.494 0-46.162 3.508-46.162 7.836 0 4.327 20.668 7.835 46.162 7.835ZM341.722 273.828c53.175 0 96.282-6.765 96.282-15.11 0-8.346-43.107-15.111-96.282-15.111s-96.283 6.765-96.283 15.111c0 8.345 43.108 15.11 96.283 15.11Z" fill="#1A75FF"/><path d="M19.956 232.345a26.887 26.887 0 0 0 1.396 26.95c.849 1.276 1.63 2.194 2.253 2.437 2.991 1.177 8.983 4.073 8.983 4.073l14.427-5.681s2.342-12.414 4.557-23.073c1.51-7.27 2.97-13.72 3.569-14.851 1.493-2.784 0-33.103 0-33.103s-14.427-.969-18.395 10.175l-1.735 3.401-15.055 29.672Z" fill="#A8A8A8"/><path opacity=".1" d="M39.11 235.695c8.77 10.072 12.47 1.36 12.47 1.36 1.51-7.27 2.97-13.72 3.569-14.851 1.493-2.785 0-33.103 0-33.103s-14.427-.969-18.395 10.174l-1.735 3.402c-1.112 8.915-2.21 25.769 4.09 33.018Z" fill="#fff"/><path d="m41.036 263.769 50.918-5.893 9.085-59.896-6.87-15.557a63.051 63.051 0 0 0-11.88-17.959c-3.459-3.652-7.638-7.163-12.034-8.928-.6-.242-1.214-.453-1.837-.629a4.745 4.745 0 0 0-4.244.752c-6.28 4.46-8.524 23.422-9.25 32.551a102.045 102.045 0 0 1-1.515 11.177l-12.373 64.382Z" fill="#A8A8A8"/><path opacity=".1" d="m74.935 197.334-10.608 26.147c5.558-4.073 13.794-26.253 13.794-26.253l7.38 25.288-5.882-26.653a83.52 83.52 0 0 0 .747-17.491c-.467-6.692-6.734-17.432-10.137-22.84a18.28 18.28 0 0 0-1.837-.629 4.745 4.745 0 0 0-4.244.753c2.674 5.378 9.357 18.826 11.393 22.822 2.585 5.034-.606 18.856-.606 18.856Z" fill="#fff"/><path d="M83.595 265.805h27.628a8.366 8.366 0 0 0 6.075-2.611 8.403 8.403 0 0 0 2.297-6.212c-.611-11.87-2.16-33.034-5.843-46.469-1.99-7.249-4.303-11.055-6.425-12.93a6.255 6.255 0 0 0-3.653-1.721 4.782 4.782 0 0 0-2.97.722c-5.13 4.928-11.122 30.858-11.122 30.858l-5.987 38.363Z" fill="#A8A8A8"/><path opacity=".1" d="M109.101 242.808c1.137 3.159 1.587 6.803 0 10.353l-6.157 3.048s-16.548-7.028-14.537-21.432c0 0 .543-2.976 6.242-2.747a16.13 16.13 0 0 1 8.865 3.183 16.182 16.182 0 0 1 5.587 7.595ZM102.524 204.945c-.191-5.051 2.546-6.803 4.807-7.36a6.262 6.262 0 0 0-3.653-1.722 9.729 9.729 0 0 0-3.187 5.102l-5.77 28.184s8.125-15.739 7.803-24.204Z" fill="#fff"/><path d="m76.327 227.23 13.68 18.75 2.372 15.476-8.792 4.349-12.674 2.806c-1.221.272-2.476.354-3.722.242l-34.586-3.048 4.706-10.931 16.251-22.86 22.765-4.784Z" fill="#A8A8A8"/><path opacity=".1" d="M71.031 220.793s9.335.642 5.83 16.713c-3.505 16.071-39.568 17.359-39.568 17.359s7.664-13.605 19.451-23.354a54.368 54.368 0 0 0 3.82-3.448c2.71-2.717 7.896-7.492 10.467-7.27Z" fill="#fff"/><path opacity=".1" d="M79.429 232.91s12.649 11.535 11.456 29.285L79.43 232.91Z" fill="#000"/><path opacity=".1" d="M100.708 196.584s-13.272 17.687-14.762 44.901l14.762-44.901ZM55.153 189.09s6.424 29.23-9.615 51.261l9.615-51.261Z" fill="#000"/><path d="M172.16 297.344h69.223a3.86 3.86 0 0 0 1.907-.514 3.89 3.89 0 0 0 1.488-5.213l-34.595-64.403a3.87 3.87 0 0 0-6.823 0l-34.612 64.403a3.89 3.89 0 0 0 1.499 5.22 3.865 3.865 0 0 0 1.913.507Zm39.016-11.768h-8.809v-8.822h8.809v8.822Zm0-14.706h-8.809v-17.649h8.809v17.649Z" fill="#464353"/><path opacity=".1" d="M172.16 297.344h69.223a3.86 3.86 0 0 0 1.907-.514 3.89 3.89 0 0 0 1.488-5.213l-34.595-64.403a3.87 3.87 0 0 0-6.823 0l-34.612 64.403a3.89 3.89 0 0 0 1.499 5.22 3.865 3.865 0 0 0 1.913.507Zm39.016-11.768h-8.809v-8.822h8.809v8.822Zm0-14.706h-8.809v-17.649h8.809v17.649Z" fill="#000"/><path d="M172.16 299.469h69.223a3.86 3.86 0 0 0 1.907-.514 3.89 3.89 0 0 0 1.488-5.213l-34.595-64.403a3.87 3.87 0 0 0-6.823 0l-34.612 64.403a3.89 3.89 0 0 0 1.499 5.22 3.865 3.865 0 0 0 1.913.507Zm39.016-11.768h-8.809v-8.822h8.809v8.822Zm0-14.706h-8.809v-17.649h8.809v17.649ZM99.21 100.645c-.047.889.395 1.701.654 2.551a9.04 9.04 0 0 1-.124 4.991c-.475 1.701-1.272 3.499-.666 5.162.14.391.352.748.48 1.139.526 1.616-.45 3.316-1.52 4.639l4.197 2.946a4.82 4.82 0 0 0 2.122 1.016c.785.094 1.697-.327 1.858-1.101.055-.264 0-.54.051-.808.052-.346.186-.675.39-.959.204-.284.474-.515.786-.673a3.835 3.835 0 0 1 2.032-.379c2.576.14 4.765 1.837 7.107 2.925a28.575 28.575 0 0 0 4.783 1.59c.929.243 1.96.464 2.8 0 .84-.463 1.226-1.539 1.163-2.512a8.234 8.234 0 0 0-.891-2.768 7.055 7.055 0 0 1-.819-2.785c0-1.428.78-2.729 1.044-4.132.369-1.994-.382-4.022-1.299-5.834-.916-1.811-2.028-3.554-2.474-5.527a8.063 8.063 0 0 0-.462-1.747 3.99 3.99 0 0 0-.849-1.14c-1.574-1.56-3.819-2.3-6.017-2.461-2.198-.162-4.417.2-6.598.578-.832.119-1.652.314-2.448.583a15.53 15.53 0 0 0-3.221 1.747c-.993.689-2.015 1.696-2.079 2.959Z" fill="#464353"/><g opacity=".1" fill="#000"><path opacity=".1" d="M123.6 114.745c0 .128 0 .255.026.378.131-1.245.785-2.414 1.018-3.66.09-.499.117-1.008.081-1.514 0 .221-.043.425-.081.663-.267 1.403-1.061 2.704-1.044 4.133ZM100.148 104.895a7.625 7.625 0 0 0-.284-2.55 14.873 14.873 0 0 1-.615-1.982c0 .09-.034.175-.038.264-.047.888.394 1.701.653 2.551.164.559.259 1.135.284 1.717ZM125.285 120.937a2.434 2.434 0 0 1-1.137 1.875c-.849.463-1.871.242-2.801 0a28.282 28.282 0 0 1-4.782-1.595c-2.342-1.084-4.531-2.78-7.107-2.921a3.84 3.84 0 0 0-2.033.379 2.187 2.187 0 0 0-1.175 1.632c-.03.268 0 .545-.051.808-.165.774-1.073 1.195-1.858 1.101a4.82 4.82 0 0 1-2.122-1.016l-3.772-2.653c-.14.191-.28.379-.425.553l4.197 2.95a4.832 4.832 0 0 0 2.122 1.017c.785.093 1.697-.328 1.858-1.102.055-.263 0-.54.051-.807a2.194 2.194 0 0 1 1.175-1.633 3.83 3.83 0 0 1 2.033-.378c2.576.14 4.765 1.836 7.107 2.92a28.193 28.193 0 0 0 4.782 1.595c.93.242 1.961.463 2.801 0 .84-.464 1.226-1.539 1.162-2.513-.004-.072-.016-.14-.025-.212ZM99.554 114.466c.052.17.09.345.114.522.066-.46.027-.93-.114-1.373-.127-.391-.34-.748-.48-1.139a3.564 3.564 0 0 1-.195-.88 4.001 4.001 0 0 0 .195 1.73c.14.391.353.753.48 1.14Z"/></g><path d="M104.535 275.793a.555.555 0 0 1-.195.306.66.66 0 0 1-.335.072c-1.51.034-3.021 0-4.527.106-1.426.124-2.856.425-4.277.264a2.189 2.189 0 0 1-2.122-1.399 5.546 5.546 0 0 1-.238-.57 8.477 8.477 0 0 1-.581-3.146v-.85a6.457 6.457 0 0 0-.123-.927 1.411 1.411 0 0 1 .042-1.076c.603-1.101 2.058-1.322 3.178-1.407a26.174 26.174 0 0 1 7.744.57c.2.978.425 1.947.662 2.916.176.712.362 1.42.56 2.126.133.437.241.882.323 1.331a3.4 3.4 0 0 1-.111 1.684Z" fill="#464353"/><path opacity=".06" d="M104.536 275.792a.561.561 0 0 1-.196.307.66.66 0 0 1-.335.072c-1.51.034-3.021 0-4.527.106-1.426.123-2.856.425-4.277.264a2.189 2.189 0 0 1-2.122-1.399 5.546 5.546 0 0 1-.238-.57h.543c1.787 0 3.578-.063 5.364-.063.539 0 1.082-.026 1.617-.09.534-.064.971-.153 1.459-.212.731-.071 1.464-.1 2.198-.09h.603a3.42 3.42 0 0 1-.089 1.675Z" fill="#000"/><path d="M135.786 267.896a4.344 4.344 0 0 1-1.756 1.238c-3.021 1.275-6.514.701-9.632-.336a14.65 14.65 0 0 0-2.143-.617 14.495 14.495 0 0 0-2.007-.14c-.48 0-.959-.038-1.439-.068a103.936 103.936 0 0 1-3.628-.315 16.304 16.304 0 0 1-2.495-.378 2.682 2.682 0 0 1-.666-.272 1.025 1.025 0 0 1-.611-.914c.034-.54.594-.851 1.086-1.084 4.367-1.892 9.111-2.713 13.821-3.372.479-.08.945-.223 1.387-.425.53-.213.586.136.849.527.124.181.266.349.424.502a5.04 5.04 0 0 0 1.765 1.037c1.146.425 2.372.54 3.518.944.346.121.678.28.988.476a2.05 2.05 0 0 1 .518 3.197h.021Z" fill="#464353"/><path opacity=".06" d="M135.787 267.896a4.34 4.34 0 0 1-1.757 1.238c-3.021 1.275-6.513.701-9.632-.336a14.65 14.65 0 0 0-2.143-.617 14.495 14.495 0 0 0-2.007-.14c-.479 0-.959-.038-1.438-.068.39-.37.789-.731 1.196-1.08a3.536 3.536 0 0 1 1.006-.663 2.903 2.903 0 0 1 1.43-.098c2.427.336 4.608 2.041 7.056 1.892a8.688 8.688 0 0 0 3.246-1.05 5.667 5.667 0 0 0 2.122-1.514 2.43 2.43 0 0 0 .394-.761 2.05 2.05 0 0 1 .518 3.197h.009Z" fill="#000"/><path d="M134.934 194.009c-.424.85-.968 1.772-1.884 2.036-1.332.383-2.614-.816-3.195-2.075a8.977 8.977 0 0 1-.425-5.85c.242-.982.611-1.926.819-2.912.15-.83.241-1.67.272-2.513a15.435 15.435 0 0 0-.089-3.775c-.683-3.652-3.819-6.378-4.863-9.966-.526-1.79-.501-3.695-.471-5.561-.01-.472.039-.943.144-1.403.032-.126.075-.248.128-.366.7-1.556 2.775-1.768 4.217-2.674.798-.498 2.61-2.1 3.28-.638.145.326.253.667.323 1.016.276 1.301.165 2.828.233 4.056.259 4.643 1.413 9.277.879 13.895-.128.787-.19 1.583-.187 2.38.114 1.999 1.362 3.729 1.935 5.642.882 2.879.174 6.012-1.116 8.708Z" fill="#FBBEBE"/><path opacity=".1" d="M133.211 159.338a1.424 1.424 0 0 0-.976 0l-2.872.85a17.75 17.75 0 0 0-2.932 1.067 6.82 6.82 0 0 0-1.167.727c.031-.125.074-.248.127-.366.7-1.556 2.775-1.768 4.218-2.674.797-.497 2.609-2.1 3.28-.638.146.331.254.678.322 1.034Z" fill="#000"/><path d="M133.398 159.014a1.294 1.294 0 0 0-1.163-.093l-2.873.85a17.816 17.816 0 0 0-2.932 1.067c-.501.244-.97.55-1.396.91-1.34-2.334-1.697-5.102-1.943-7.78a95.994 95.994 0 0 1-.297-4.677 20.936 20.936 0 0 1 .068-3.35c.161-1.276.53-2.522.759-3.789.137-.741.225-1.491.263-2.244a21.97 21.97 0 0 0-.224-4.928 30.667 30.667 0 0 0-1.18-5.102c-.272-.761-.598-1.496-.895-2.245l-.102-.263a30.904 30.904 0 0 1-1.311-4.214c-.136-.586-.145-1.203-.594-1.603a8.08 8.08 0 0 1 1.273-.051h.254a9.509 9.509 0 0 1 4.854 1.701 11.362 11.362 0 0 1 4.023 5.332c.895 2.393 1.044 4.995 1.158 7.55.229 5.023.371 10.048.425 15.077 0 .965.042 1.994.594 2.789.155.196.296.401.424.616.199.425.17.897.331 1.327.118.257.253.507.403.748a2.745 2.745 0 0 1 .081 2.372Z" fill="#464353"/><path d="M105.155 109.109c-.424-.141-.848-.289-1.273-.425l.883.068c.147.099.279.219.39.357ZM122.531 124.453c-.085.289-.17.578-.264.85a16.057 16.057 0 0 1-.785 2.045 9.488 9.488 0 0 1-2.007 2.917 2.667 2.667 0 0 1-1.001.663 3.166 3.166 0 0 1-.984.093c-1.132 0-2.263-.017-3.395-.051a12.03 12.03 0 0 1-2.622-.259 9.356 9.356 0 0 1-2.673-1.207c-3.17-1.965-5.775-4.958-6.891-8.504-.14-.45-.238-.99.072-1.343a1.64 1.64 0 0 1 1.082-.37h.051a6.82 6.82 0 0 0 2.584-.889 2.655 2.655 0 0 0 1.179-1.207 3.26 3.26 0 0 0-.038-1.879l-.942-4.286a4.442 4.442 0 0 0-.751-1.909c.276.098.552.187.849.264 2.622.71 5.491.28 8.062 1.211.984.362 1.969 1.012 2.266 2.024.496 1.701-1.163 3.465-.688 5.166.319 1.156 1.494 1.824 2.546 2.364l.709.361 1.965.999.271.136.043.022c.619.314 1.272.705 1.489 1.373.092.474.048.965-.127 1.416Z" fill="#FBBEBE"/><path opacity=".1" d="M127.707 134.436a9.205 9.205 0 0 1-.78 3.146 12.87 12.87 0 0 0-1.337 5.527c-.327 5.74-2.504 12.572.615 17.393.077.119.153.238.225.362-.501.244-.97.549-1.396.909-1.341-2.334-1.697-5.102-1.943-7.78a95.914 95.914 0 0 1-.297-4.677 20.936 20.936 0 0 1 .068-3.35c.161-1.275.53-2.521.759-3.788.137-.742.224-1.492.263-2.245a21.97 21.97 0 0 0-.225-4.928 30.565 30.565 0 0 0-1.179-5.102c-.272-.761-.599-1.496-.896-2.244l-.102-.264a9.488 9.488 0 0 1-2.007 2.917 2.667 2.667 0 0 1-1.001.663 3.166 3.166 0 0 1-.984.093c-1.132 0-2.263-.017-3.395-.051a12.03 12.03 0 0 1-2.622-.259 9.356 9.356 0 0 1-2.673-1.207c-3.17-1.965-5.775-4.958-6.891-8.504-.14-.45-.238-.99.072-1.343a1.64 1.64 0 0 1 1.082-.37h.051l3.819 4.732a7.681 7.681 0 0 1 1.103 1.654c.057.2.176.377.339.506a.863.863 0 0 0 .425.076h11.948a3.114 3.114 0 0 0-.526-1.79c-.11.026-.259.034-.029-.034a12.085 12.085 0 0 0-1.316-3.941 2.637 2.637 0 0 0-.131-.246 4.527 4.527 0 0 1-.628-1.378 2.293 2.293 0 0 1 1.391 0c.522.225.794.791 1.023 1.314.195.425.39.88.564 1.326 0 .047.043.098.06.145.37.88.607 1.81.704 2.759.026.349.11.791.399.906a.375.375 0 0 0 .144.034 1.598 1.598 0 0 1 1.736.425c.417.479.709 1.055.848 1.675.138.62.34 1.224.603 1.803.547 1.046-.289 1.513.7 2.155.462.255.86.613 1.163 1.046.279.604.368 1.279.254 1.935ZM103.063 267.751c.2.978.425 1.948.662 2.917l-.025.06c-1.939-.851-3.925-1.739-6.043-1.926-1.964-.171-4.099.361-5.435 1.789a6.444 6.444 0 0 0-.123-.926 1.411 1.411 0 0 1 .042-1.076c.603-1.101 2.058-1.322 3.178-1.407a26.207 26.207 0 0 1 7.744.569Z" fill="#000"/><path opacity=".1" d="M119.777 125.291c.199 0 .127 0 .029.034-.097.034-.258.034-.029-.034ZM128.997 262.242a36.816 36.816 0 0 0-5.312 4.12 5.57 5.57 0 0 1-1.676 1.228c-.652.21-1.34.281-2.02.209a68.915 68.915 0 0 1-7.969-.791 1.025 1.025 0 0 1-.611-.914c.034-.54.594-.851 1.086-1.084 4.367-1.892 9.111-2.713 13.821-3.372.479-.08.945-.223 1.387-.425.53-.213.586.136.849.527.131.182.28.35.445.502Z" fill="#000"/><path d="M97.865 120.359c.624.557 1.337 1.007 1.969 1.547 1.697 1.442 2.766 3.457 3.819 5.421a3.533 3.533 0 0 1-1.948.132 14.012 14.012 0 0 0 .166 5.684 5.271 5.271 0 0 0-1.897 2.36c-.302.97-.51 1.966-.62 2.976-.61 4.424-1.225 8.849-1.841 13.273-.013.434-.161.852-.425 1.195a2.261 2.261 0 0 0-.322.319c-.13.286-.181.602-.148.914-.026.31-.23.68-.54.638a.667.667 0 0 1-.377-.247 8.698 8.698 0 0 1-.849-1.054c-2.503 4.813-3.708 10-5.032 15.263-.946 3.75-1.892 7.542-1.94 11.411.014 1.831.128 3.659.345 5.476l.373 3.733c.301 3.002.602 6.008.93 9.009.211 1.905.423 3.827 1.107 5.621 1.018 2.725-.11 5.799.322 8.682.34 2.257 1.014 4.591.335 6.768-.271.872-.746 1.667-1.103 2.509-.874 2.091-.963 4.417-1.04 6.683a28.111 28.111 0 0 0 .221 5.952c.365 2.037 1.184 4.031 1.023 6.089-.225 2.929-2.38 5.433-2.644 8.358-.208 2.334.815 4.588 1.914 6.658.81 1.527-.318 3.499-.747 5.179-.849 3.29.565 6.734 2.296 9.655.044.1.122.182.22.23.2.072.378-.124.51-.289 1.302-1.676 3.61-2.309 5.728-2.126 2.117.183 4.099 1.058 6.042 1.926l2.754-6.144c.467-1.041.942-2.168.709-3.286-.166-.8-.679-1.476-1.044-2.207-.849-1.726-.891-3.737-.9-5.671l-.051-10.927c2.147-2.704 3.459-5.918 4.286-9.277a29.825 29.825 0 0 1 .255 14.455 13.207 13.207 0 0 0-.425 2.203c-.165 3.031 2.207 5.595 2.839 8.562.061.227.078.464.051.698-.071.287-.19.56-.352.807-1.138 2.067-1.014 4.571-.849 6.926 2.976.519 5.982.842 9 .965a5.026 5.026 0 0 0 2.02-.208 5.586 5.586 0 0 0 1.676-1.233 37.007 37.007 0 0 1 6.309-4.783 14.703 14.703 0 0 0-5.155-5.102c.683-1.007 2.24-.927 3.148-1.734a2.98 2.98 0 0 0 .849-1.676c.339-1.666-.081-3.401-.501-5.038-.814-3.222-1.633-6.458-2.97-9.502a36.37 36.37 0 0 1-1.595-3.848c-1.112-3.665-.336-7.653-1.176-11.398-.271-1.199-.708-2.436-.403-3.631.467-1.841 2.546-2.934 3.004-4.779 1.642-6.569 1.935-13.375 2.869-20.08.208-1.281.32-2.576.335-3.873 0-1.357-.242-2.7-.34-4.052-.381-5.412 1.345-10.812.904-16.22a20.417 20.417 0 0 0-3.191-9.353c-3.118-4.826-.942-11.654-.615-17.394.025-1.919.48-3.808 1.332-5.527a9.043 9.043 0 0 0 .785-3.146 3.258 3.258 0 0 0-.237-1.985 3.352 3.352 0 0 0-1.159-1.046c-.988-.646-.152-1.114-.7-2.16a9.072 9.072 0 0 1-.602-1.803 3.8 3.8 0 0 0-.849-1.671 1.609 1.609 0 0 0-.803-.477 1.61 1.61 0 0 0-.932.052c-.403 0-.514-.535-.548-.939-.114-1.48-.725-2.87-1.324-4.231-.229-.523-.5-1.088-1.022-1.313a2.325 2.325 0 0 0-1.396 0c.131.493.345.96.632 1.381a12.037 12.037 0 0 1 1.443 4.184c-.425.127.424 0 0 0 .38.53.575 1.171.556 1.824h-11.945a.847.847 0 0 1-.424-.077 1.015 1.015 0 0 1-.344-.506 7.379 7.379 0 0 0-1.103-1.649l-4.201-5.191a1.061 1.061 0 0 0-.361-.328.974.974 0 0 0-.53 0c-1.362.2-2.368.77-3.556 1.463Z" fill="#1A75FF"/><path opacity=".1" d="M112.941 190.696a4.047 4.047 0 0 1 2.067.535 2.085 2.085 0 0 1 1.027 1.795c-.047.803-.662 1.441-1.108 2.125a5.704 5.704 0 0 0-.653 1.344.536.536 0 0 0-.034.344c.051.162.225.243.373.315a3.185 3.185 0 0 1 1.871 2.789c-.038 1.658-1.655 3.002-1.565 4.677.04.348.1.695.178 1.037a7.94 7.94 0 0 1-.573 4.205c-.513 1.335-1.214 2.589-1.765 3.911-1.49 3.593-1.812 7.572-1.697 11.48.089 2.653-.849 5.178-1.698 7.703.48-5.086.607-10.201.382-15.305-.059-1.386-.233-2.696-.17-4.086.102-2.207 1.333-4.213 1.647-6.377.178-1.238.059-2.496.089-3.746.059-2.551.751-5.068.798-7.627.059-1.807-.106-3.67.831-5.119Z" fill="#000"/><path d="M95.234 121.268c-.843.421-1.632.944-2.35 1.556a10.009 10.009 0 0 0-1.859 2.551 32.588 32.588 0 0 0-1.574 3.299c-.598 1.462-1.095 3.082-.683 4.609.373 1.381 1.43 2.457 2.16 3.686.73 1.228 1.158 2.67 1.718 4.018.747 1.798 1.77 3.473 2.508 5.276.738 1.802 1.184 3.826.717 5.701-.136.553-1.031.982-1.031 1.548 0 .935 1.35 1.951 2.245 2.223 1.03.319 2.155-.157 2.999-.85 1.549-1.229 2.491-3.07 3.187-4.923 1.12-2.976 1.719-6.135 2.257-9.273.391-2.304.756-4.613.964-6.934.191-2.092.25-4.252-.302-6.259a10.631 10.631 0 0 0-2.898-4.83c-1.103-1.062-2.911-2.491-4.514-2.529-1.27-.005-2.457.531-3.544 1.131Z" fill="#464353"/><path d="M107.298 172.522a2.022 2.022 0 0 1-.946 1.416 5.556 5.556 0 0 1-1.617.663c-1.137.332-2.342.638-3.492.344a6.99 6.99 0 0 1-2.453-1.398l-12.848-9.856a17.395 17.395 0 0 1-2.83-2.516 18.214 18.214 0 0 1-1.341-1.909 9.37 9.37 0 0 1-1.248-2.483 4.563 4.563 0 0 1-.152-1.195c-.004-.381.09-.757.271-1.093.31-.518.972-.625 1.515-.769a15.871 15.871 0 0 1 5.588-.425.762.762 0 0 1 .756.514c.284.523.53 1.067.785 1.611.39.928.9 1.801 1.514 2.598a21.985 21.985 0 0 0 1.889 1.824c1.358 1.276 2.47 2.806 3.916 3.98 1.676 1.356 3.713 2.168 5.622 3.167 1.91.999 3.794 2.296 4.753 4.23.222.395.332.844.318 1.297Z" fill="#FBBEBE"/><path opacity=".1" d="M122.17 103.763a10.53 10.53 0 0 1-2.86 7.221 10.494 10.494 0 0 1-14.387.856 10.54 10.54 0 0 1-1.702-14.34 10.49 10.49 0 0 1 14.186-2.55 10.527 10.527 0 0 1 4.763 8.813Z" fill="#000"/><path d="M122.17 103.339a10.53 10.53 0 0 1-2.86 7.221 10.494 10.494 0 0 1-14.387.856 10.54 10.54 0 0 1-1.702-14.34 10.49 10.49 0 0 1 14.186-2.55 10.526 10.526 0 0 1 4.763 8.813Z" fill="#FBBEBE"/><path opacity=".1" d="M89.286 155.409c-.484.311-1.201.209-1.8.073-2.359-.528-4.964-.906-7.115.106-.004-.381.09-.757.271-1.093.31-.518.972-.625 1.515-.769a15.871 15.871 0 0 1 5.588-.425.762.762 0 0 1 .756.514c.284.506.53 1.05.785 1.594Z" fill="#000"/><path d="M84.851 141.094c-.522 1.701-.95 3.448-1.973 4.889a3.61 3.61 0 0 0-.747 1.31c-.011.357-.07.712-.174 1.054-.144.289-.45.481-.573.778-.182.425.055.974-.186 1.373a2.04 2.04 0 0 1-.403.426c-.578.535-.722 1.39-.735 2.181-.012.79.064 1.598-.195 2.342 2.24-1.339 5.092-.939 7.638-.37.709.158 1.587.277 2.045-.293.459-.57.195-1.318.259-2.003.085-.892.696-1.632 1.074-2.444.424-.914.568-1.935.895-2.887.675-2.003 2.121-3.635 3.05-5.527.345-.651.55-1.366.603-2.1a6.282 6.282 0 0 0-.725-2.726 37.314 37.314 0 0 0-3.14-5.616c-.54-.795-1.468-2.266-2.304-.995-.68 1.025-1.104 2.33-1.604 3.452a63.272 63.272 0 0 0-2.805 7.156ZM123.138 124.589a8.563 8.563 0 0 1-6.866-2.716 1.058 1.058 0 0 1-.305-.498 1.001 1.001 0 0 1 .195-.697c.509-.787 1.388-1.305 1.795-2.151.407-.846.267-1.82.305-2.747.068-1.662.722-3.308.777-4.944a5.188 5.188 0 0 0-.093-1.25 7.85 7.85 0 0 1-.357-1.884c.055-1.246 1.175-2.215 1.362-3.444.242-1.564-1.052-2.925-2.355-3.826a13.998 13.998 0 0 0-3.208-1.663c-.698-.25-1.42-.425-2.155-.522a8.386 8.386 0 0 0-4.061.454 6.645 6.645 0 0 0-1.511.808 2.05 2.05 0 0 0-.674.702c-.136.32-.197.668-.178 1.016-.026 1.739.169 3.588-.658 5.102-.424.812-1.146 1.471-1.498 2.33a3.877 3.877 0 0 0-.267 1.118c-.043.398-.064.798-.064 1.199-.025 2.24 0 4.604 1.137 6.547.402.588.766 1.2 1.091 1.833a2.095 2.095 0 0 1-.106 2.036c-.23.276-.521.494-.849.638a6.782 6.782 0 0 1-5.427.196 6.9 6.9 0 0 0 1.604-7.687 4.54 4.54 0 0 1-.586-1.701 4.324 4.324 0 0 1 .425-1.556 8.524 8.524 0 0 0 .258-4.983c-.258-1.012-.708-1.99-.789-3.031a9.206 9.206 0 0 1 .102-2.356 7.658 7.658 0 0 1 5.232-6.033c.216-.072.424-.14.662-.2a14.086 14.086 0 0 1 3.136-.335c2.355-.077 4.744-.145 7.014.472a9.411 9.411 0 0 1 3.632 1.87 6.564 6.564 0 0 1 1.756 2.326c.221.517.388 1.055.497 1.607.098.455.17.914.242 1.373.513 3.27 1.027 6.603.479 9.868-.216 1.276-.594 2.551-.763 3.852-.412 2.997.33 5.978 1.069 8.877Z" fill="#464353"/><path d="M108.062 128.789a.79.79 0 0 0 .789-.791.79.79 0 1 0-.789.791ZM121.381 128.416a.79.79 0 0 0 .789-.791.79.79 0 1 0-.789.791Z" fill="#fff"/><path opacity=".1" d="m108.062 88.033-1.698-3.21c.108-.128.226-.248.352-.357.246-.151.533-.22.819-.196l.527 3.763ZM112.742 84.123l-1.922 2.849-1.095-3.125a3.468 3.468 0 0 1 1.481-.28 4.916 4.916 0 0 1 1.536.556Z" fill="#000"/><g opacity=".1" fill="#000"><path opacity=".1" d="M105.444 120.548c-.23.276-.521.494-.849.638a6.804 6.804 0 0 1-4.825.404 6.601 6.601 0 0 1-.602.642 6.782 6.782 0 0 0 5.427-.195c.328-.144.619-.363.849-.638a1.834 1.834 0 0 0 .271-1.471 1.502 1.502 0 0 1-.271.62ZM100.84 106.311c.138.557.219 1.127.242 1.7a8.496 8.496 0 0 0-.242-2.551c-.259-1.012-.709-1.989-.789-3.031 0-.132 0-.264-.022-.4-.02.417-.013.835.022 1.25.08 1.042.53 2.02.789 3.032ZM122.802 111.872c.181-1.124.257-2.263.23-3.401a17.744 17.744 0 0 1-.23 2.551c-.216 1.275-.594 2.551-.763 3.852a13.324 13.324 0 0 0-.098 2.104c.012-.419.044-.838.098-1.254.169-1.301.547-2.564.763-3.852ZM100.755 113.695a7.003 7.003 0 0 1-.534-1.314c-.036.153-.054.31-.051.468.08.6.279 1.178.585 1.7.312.713.491 1.476.531 2.254a6.612 6.612 0 0 0-.531-3.108ZM118.945 109.567c.038.194.065.389.081.586v-.187a5.192 5.192 0 0 0-.093-1.25c-.094-.446-.246-.888-.319-1.339a1.969 1.969 0 0 0-.038.306c.046.641.17 1.273.369 1.884ZM116.272 121.004a2.224 2.224 0 0 1-.182-.217.876.876 0 0 0-.123.57c.053.191.159.364.305.497a8.563 8.563 0 0 0 6.866 2.717c-.072-.281-.145-.557-.212-.85a8.55 8.55 0 0 1-6.654-2.717ZM119.943 103.449a.185.185 0 0 1 0-.047c.242-1.565-1.053-2.925-2.355-3.826a14.042 14.042 0 0 0-3.208-1.663 10.433 10.433 0 0 0-2.156-.523 8.382 8.382 0 0 0-4.06.455 6.62 6.62 0 0 0-1.511.808 2.053 2.053 0 0 0-.675.701c-.136.321-.197.669-.178 1.017v.884-.034a2.281 2.281 0 0 1 .178-1.016c.166-.285.397-.526.675-.702a6.62 6.62 0 0 1 1.511-.808 8.382 8.382 0 0 1 4.06-.454c.735.097 1.458.272 2.156.522 1.136.414 2.214.973 3.208 1.663 1.082.731 2.147 1.786 2.355 3.023ZM105.151 105.485c-.424.812-1.146 1.471-1.498 2.33a3.877 3.877 0 0 0-.267 1.118c-.043.398-.064.799-.064 1.199v1.093-.243c0-.4.021-.8.064-1.199.033-.384.123-.76.267-1.118.352-.85 1.057-1.518 1.498-2.33.683-1.275.671-2.742.658-4.2a7.11 7.11 0 0 1-.658 3.35Z"/></g><path opacity=".1" d="M122.081 100.648a1.247 1.247 0 0 1-.203.226c-.15.123-.318.223-.497.297-1.235.536-1.184-1.211-1.829-1.81a2.189 2.189 0 0 0-1.434-.426 326.797 326.797 0 0 0-3.73-.166 104.536 104.536 0 0 0-6.216-.068c-.993.017-1.983.058-2.97.123-1.146.077-2.376.226-3.352.77a3.569 3.569 0 0 0-.896.701c-.233.256-.479.579-.802.638a7.666 7.666 0 0 1 1.768-3.755 7.635 7.635 0 0 1 3.464-2.278 10.487 10.487 0 0 1 14.427 1.807 6.567 6.567 0 0 1 1.757 2.326c.227.519.399 1.06.513 1.615Z" fill="#000"/><path d="M121.381 100.32c-1.235.536-1.184-1.211-1.829-1.81a2.19 2.19 0 0 0-1.434-.426c-4.3-.283-8.612-.32-12.916-.11-1.532.102-3.213.331-4.244 1.47-.263.29-.539.664-.933.651a32.731 32.731 0 0 1-.289-2.606 2.904 2.904 0 0 1 .051-.978c.106-.366.348-.676.471-1.033a4.15 4.15 0 0 0 .127-1.395 10.093 10.093 0 0 1 1.351-4.936 10.07 10.07 0 0 1 3.597-3.635 4.504 4.504 0 0 0 1.031-.697c.108-.128.226-.248.352-.357.245-.151.532-.22.819-.196h.603a5.469 5.469 0 0 0 1.591-.425 3.465 3.465 0 0 1 1.481-.28 4.923 4.923 0 0 1 1.536.556c.229.111.47.198.717.26.386.089.785.085 1.171.161.626.16 1.22.424 1.757.783a8.399 8.399 0 0 1 1.765 1.275 7.814 7.814 0 0 1 1.366 2.228c.562 1.125.99 2.312 1.273 3.537.344 1.76.174 3.665.989 5.264.496 1.003.95 2.117-.403 2.699Z" fill="#FED253"/><path opacity=".1" d="M99.872 98.985s8.796-8.018 21.895-1.369c0 0-14.788-3.371-21.895 1.37Z" fill="#000"/><path d="M4.027 139.958c-1.197-1.964-2.996-3.762-2.716-5.99 3.293.378 6.416-.425 9.432-1.824 3.018-1.399 5.818-3.214 8.644-4.996 1.112-.701 2.22-1.39 3.322-2.028 1.749-1.003 3.484-2.125 5.262-3.107 2.546-1.403 5.143-2.551 8.003-2.772a14.45 14.45 0 0 1 1.557-.039c3.522.068 7.17 1.016 10.268-.565l.191-.102c1.757-.965 3.034-2.606 4.54-3.937a20.21 20.21 0 0 1 3.518-2.449c2.287-1.276 4.765-2.296 7.103-3.499a10.72 10.72 0 0 0 1.698-1.089l.398-.318.09-.077c.097-.081.195-.162.288-.247l.183-.161.186-.17.144-.136.234-.221.025-.03.37-.366.148-.149.259-.267.153-.153c.258-.268.517-.54.78-.804s.62-.621.938-.914l.306-.272.089-.077.246-.204.114-.098.242-.187.12-.093c.118-.089.24-.175.364-.26.113-.078.232-.148.356-.208l-.793-1.926 2.283-.944 31.484 76.55-2.287.944-18.008-43.791-.127.127a36.145 36.145 0 0 1-14.89 8.878h-.034c-3.135.948-6.644 1.619-9.284 3.38a8.902 8.902 0 0 0-2.397 2.3c-.62.884-1.052 1.892-1.697 2.742a6.9 6.9 0 0 1-.395.455 14.8 14.8 0 0 1-2.546 2.024l-.403.276a82.693 82.693 0 0 1-8.529 5.268 33.566 33.566 0 0 1-5.3 2.21c-1.328.426-2.698.736-4.026 1.157-.894.271-1.761.621-2.593 1.046-2.249 1.177-3.976 3.023-5.61 4.991-1.43 1.726-2.787 3.554-4.357 5.128-.985.977-2.483 1.904-3.67 1.33l-.242-.14c.038-.064.067-.128.101-.196.938-1.968-.216-4.4-1.77-5.977a10.445 10.445 0 0 0-.495-.481c-.17-.153-.476-.425-.718-.637-1.328-1.144-2.74-2.207-3.662-3.682a12.031 12.031 0 0 1-1.408-4.001c-.425-2.003-.709-4.065-1.795-5.769-.713-1.127-1.774-2.088-2.546-3.168a4.83 4.83 0 0 1-.934-2.185c-.173-1.382.467-2.734.71-4.112.071-.375.1-.757.088-1.139-.088-1.02-.435-2-1.005-2.849Z" fill="url(#b)"/><path d="m100.769 176.116 2.248-.928-30.96-75.263-2.248.928 30.96 75.263Z" fill="#D6D8E1"/><path d="M8.474 153.143c1.065 1.68 1.349 3.703 1.76 5.672a11.964 11.964 0 0 0 1.388 3.937c.908 1.45 2.296 2.496 3.598 3.618.238.208.476.425.705.629.165.149.33.311.488.468 1.527 1.552 2.66 3.945 1.74 5.88-.029.066-.061.13-.098.191.074.051.152.096.233.136 1.171.57 2.644-.34 3.611-1.305 1.545-1.548 2.881-3.342 4.286-5.038 1.604-1.939 3.305-3.754 5.516-4.911a15.27 15.27 0 0 1 2.546-1.029c1.303-.425 2.652-.727 3.959-1.135a33.313 33.313 0 0 0 5.21-2.172 81.693 81.693 0 0 0 8.402-5.183l.399-.272a14.57 14.57 0 0 0 2.503-1.986c.136-.144.268-.293.39-.45.654-.851 1.083-1.824 1.698-2.696a8.79 8.79 0 0 1 2.36-2.262c2.596-1.73 6.042-2.393 9.126-3.324h.034a35.614 35.614 0 0 0 14.64-8.729c.34-.285.593-.658.733-1.08.132-.599-.19-1.195-.5-1.722-.361-.62-.713-1.241-1.061-1.87a83.664 83.664 0 0 1-4.96-10.804 80.97 80.97 0 0 1-2.262-6.917c-.03-.111-.064-.23-.093-.357-.705-2.836-1.647-9.473-4.55-7.487a16.788 16.788 0 0 0-2.397 2.087c-.564.574-1.115 1.165-1.697 1.735-.473.467-.974.905-1.498 1.314-.532.408-1.1.767-1.697 1.071-2.304 1.182-4.74 2.173-6.984 3.44a19.804 19.804 0 0 0-3.463 2.406c-1.48 1.31-2.737 2.925-4.464 3.873l-.186.102c-3.047 1.552-6.632.621-10.1.553-.509-.013-1.018 0-1.527.038-2.813.213-5.384 1.344-7.87 2.726-1.749.969-3.455 2.066-5.173 3.056a91.002 91.002 0 0 0-3.268 1.994c-2.775 1.752-5.588 3.589-8.486 4.915-2.97 1.352-6.038 2.16-9.276 1.79-.275 2.19 1.49 3.958 2.67 5.889.566.829.91 1.791.997 2.793.015.374-.012.75-.081 1.118-.238 1.356-.849 2.683-.696 4.048.12.778.434 1.513.912 2.138.739 1.059 1.778 2.007 2.483 3.112Z" fill="#F86D70"/><path d="M94.742 161.998s3.717 3.248 7.485 4.979c3.768 1.73 1.273 7.937 1.273 7.937s-3.993.919-6.789-2.976c-2.796-3.894-1.969-9.94-1.969-9.94Z" fill="#FBBEBE"/><path d="M295.038 217.29s-9.844 12.98-18.012 13.086c-8.168.107-12.963 5.468-9.085 8.818 3.878 3.35 46.141-1.913 46.141-1.913s.399-15.952-3.263-18.282-15.781-1.709-15.781-1.709ZM400.885 232.872s1.506 10.28-3.149 17.291c-4.654 7.011 8.41 9.715 8.41 9.715s9.493 2.649 10.184-6.747c.692-9.396.467-16.581-.424-17.347-.891-.765-1.634-6.05-1.634-6.05l-13.387 3.138Z" fill="#444176"/><path d="M251.863 252.29s-.343-33.251 32.495-46.767l7.625-14.536 3.658-8.929a21.726 21.726 0 0 1 6.074-8.354 21.67 21.67 0 0 1 9.239-4.596l5.915-1.331 1.829-7.721a21.714 21.714 0 0 1 6.211-10.789 21.658 21.658 0 0 1 11.106-5.596 60.527 60.527 0 0 1 10.905-1.021 9.373 9.373 0 0 1 4.6 1.288 9.398 9.398 0 0 1 3.373 3.389s31.111-.344 32.49 16.628c0 0 3.114 15.582 7.608 18.354 0 0 7.604-1.73 15.207 9.354l8.296 28.4s21.776 20.433 15.207 39.115c0 0-8.987 12.814-54.614 4.154 0 0-48.737 14.88-74.68-5.527-.004.025-43.209 8.337-52.544-5.515Z" fill="#A8A8A8"/><path opacity=".1" d="M273.64 247.093s6.916-9.698 6.568-16.628c-.348-6.93 1.63-23.809 1.63-23.809M298.874 221.117s6.912-12.814 6.221-19.74c0 0 7.26-13.18 12.789-12.126M336.897 184.749s19.01-6.926 20.05-12.466M343.81 200.683s20.049-9.005 20.049-11.433h10.018s14.52 19.051 12.793 27.363M367.317 214.535s-19.357-1.386-26.274 4.158c-6.916 5.544-19.357 8.312-19.357 8.312s-7.26 15.586-10.027 18.354c-2.767 2.768-7.26 12.47-7.26 12.47M367.317 232.895s2.071 7.27 4.837 11.428c2.767 4.158 6.912 19.047 6.912 19.047M399.807 254.02s4.388 12.231 8.245 12.35" stroke="#000" stroke-miterlimit="10"/><path opacity=".1" d="M371.068 201.516s11.397 3.086 16.162 10.565c4.765 7.478 19.319 14.26 19.319 14.26M375.956 164.672s0 15.931 4.494 15.931c4.493 0 14.52 1.73 14.52 1.73M353.934 145.752s-1.15 27.52-7.027 34.646" stroke="#000" stroke-miterlimit="10"/><g opacity=".05" fill="#000"><path opacity=".05" d="m417.781 219.731-8.295-28.4c-7.604-11.084-15.208-9.354-15.208-9.354-4.493-2.772-7.604-18.358-7.604-18.358-1.383-16.973-32.494-16.624-32.494-16.624a9.389 9.389 0 0 0-7.99-4.677c-1.468 0-2.97.047-4.472.17.848.085 1.662.206 2.44.362l2.418 4.158s31.107-.349 32.49 16.624c0 0 3.115 15.586 7.608 18.358 0 0 7.604-1.735 15.208 9.353l8.296 28.401s21.776 20.433 15.207 39.115c0 0-4.434 6.322-22.879 7.087 24.869.914 30.483-7.087 30.483-7.087 6.568-18.695-15.208-39.128-15.208-39.128ZM296.108 257.482a160.976 160.976 0 0 1-22.146 2.428c8.661.332 17.669-.608 23.474-1.407-.45-.345-.891-.676-1.328-1.021ZM370.771 263.025a141.654 141.654 0 0 1-32.639 5.17c15.934.579 31.027-2.75 37.247-4.349-1.502-.251-3.025-.536-4.608-.821Z"/></g><path d="M94.56 317.045s9.509-.293 12.373-2.338c2.864-2.045 14.622-4.486 15.335-1.208.713 3.278 14.287 16.305 3.551 16.394-10.735.089-24.937-1.675-27.797-3.422-2.86-1.748-3.462-9.426-3.462-9.426Z" fill="#A8A8A8"/><path opacity=".2" d="M126.014 328.749c-10.735.089-24.941-1.675-27.801-3.401-2.177-1.331-3.047-6.101-3.335-8.299h-.318s.602 7.682 3.462 9.426c2.86 1.743 17.066 3.507 27.797 3.422 3.102-.025 4.171-1.131 4.112-2.768-.429.987-1.613 1.603-3.917 1.62Z" fill="#000"/><path d="M326.383 293.151s-11.198-2.245-14.181-5.238c-2.983-2.993-16.421-8.222-17.915-4.485-1.493 3.737-20.151 16.453-7.463 18.707 12.687 2.253 29.855 2.976 33.589 1.496 3.734-1.479 5.97-10.48 5.97-10.48Z" fill="#A8A8A8"/><path opacity=".2" d="M286.823 300.724c12.692 2.241 29.855 2.976 33.589 1.493 2.839-1.14 4.816-6.612 5.597-9.158l.374.08s-2.241 8.971-5.971 10.468c-3.729 1.496-20.897.748-33.589-1.497-3.662-.646-4.71-2.168-4.315-4.09.314 1.267 1.591 2.232 4.315 2.704Z" fill="#000"/><path opacity=".1" d="M219.161 48.83h-2.664a1.865 1.865 0 0 0 1.867-1.871 1.873 1.873 0 0 0-1.867-1.871h-21.59a1.865 1.865 0 0 0-1.867 1.87 1.873 1.873 0 0 0 1.867 1.871h2.665a1.865 1.865 0 0 0-1.778 1.869 1.873 1.873 0 0 0 1.778 1.868h-3.73a1.873 1.873 0 0 0-1.32 3.194c.35.35.825.548 1.32.548h21.59a1.865 1.865 0 0 0 1.867-1.87 1.873 1.873 0 0 0-1.867-1.872h3.729a1.866 1.866 0 0 0 1.805-2.605 1.874 1.874 0 0 0-1.063-1.016 1.865 1.865 0 0 0-.742-.116ZM303.015 114.647h-2.664a1.86 1.86 0 0 0 1.262-.577 1.873 1.873 0 0 0-1.262-3.16H278.74a1.873 1.873 0 0 0-1.377.515 1.87 1.87 0 0 0 1.377 3.222h2.665a1.873 1.873 0 0 0 0 3.738h-3.73a1.87 1.87 0 0 0 0 3.741h21.585a1.87 1.87 0 0 0 0-3.741h3.755a1.875 1.875 0 0 0 1.378-.515 1.88 1.88 0 0 0 .578-1.354 1.877 1.877 0 0 0-.578-1.354 1.87 1.87 0 0 0-1.378-.515ZM178.762 102.472h-2.665a1.873 1.873 0 0 0 1.377-.515 1.87 1.87 0 0 0-1.377-3.222h-21.594a1.866 1.866 0 0 0-1.956 1.868 1.87 1.87 0 0 0 1.956 1.869h2.665a1.87 1.87 0 0 0-1.377.514 1.864 1.864 0 0 0-.579 1.354 1.87 1.87 0 0 0 1.956 1.869h-3.734a1.873 1.873 0 0 0 0 3.741h21.589a1.868 1.868 0 0 0 1.867-1.87 1.868 1.868 0 0 0-1.867-1.871h3.73a1.853 1.853 0 0 0 1.377-.515 1.87 1.87 0 0 0-1.377-3.222h.009Z" fill="#1A75FF"/></g><defs><linearGradient id="b" x1="-307741" y1="27863.7" x2="-332545" y2="27863.7" gradientUnits="userSpaceOnUse"><stop stop-color="gray" stop-opacity=".25"/><stop offset=".54" stop-color="gray" stop-opacity=".12"/><stop offset="1" stop-color="gray" stop-opacity=".1"/></linearGradient><clipPath id="a"><path fill="#fff" d="M0 0h438v354H0z"/></clipPath></defs></svg>