<svg width="488" height="352" fill="none" xmlns="http://www.w3.org/2000/svg"><g opacity=".5"><path opacity=".5" d="M481.706 164.104H434.56a6.298 6.298 0 0 0-6.294 6.301v47.202a6.298 6.298 0 0 0 6.294 6.302h47.146a6.298 6.298 0 0 0 6.294-6.302v-47.202a6.298 6.298 0 0 0-6.294-6.301Z" fill="#D0D2D5"/><path opacity=".1" d="M449.663 181.291h16.94s14.265 12.497 0 25.44h-16.94s-14.265-11.604 0-25.44Z" fill="#000"/><path opacity=".5" d="M453.675 188.428h-2.229v6.694h2.229v-6.694ZM464.82 187.535h-2.229v8.034h2.229v-8.034ZM458.133 199.139a2.673 2.673 0 0 1 2.675 2.678v2.231h-5.35v-2.231a2.678 2.678 0 0 1 2.675-2.678Z" fill="#3F3D56"/></g><path d="M277.17 106.427c1.413-.031 2.822.076 4.231 0 1.288-.062 2.567-.272 3.856-.401 2.202-.219 4.422-.201 6.633-.295 1.453-.062 2.986-.205 4.163-1.062 1.106-.799 1.721-2.102 2.706-3.048 4.012-3.861 6.763-9.025 10.329-13.31.891-1.088 1.823-2.173 2.63-3.338 1.547-2.231 2.639-4.762 3.727-7.261.428-.927.786-1.885 1.069-2.865.201-.786.304-1.598.571-2.366.553-1.571 1.881-2.946 2.042-4.601l-.188.026c1.623-2.066 1.373-5.668 2.176-8.314a35.808 35.808 0 0 1 1.859-4.593l2.982-6.503c.513-1.115 1.047-2.267 1.935-3.124 1.074-1.04 2.572-1.557 3.65-2.593a5.668 5.668 0 0 0 1.4-2.28l.094.089c.57.558 1.016 1.24 1.573 1.816 1.2 1.24 2.862 1.95 4.084 3.169.624.62 1.136 1.375 1.89 1.825a2.09 2.09 0 0 0 2.425-.299c2.189-1.928 5.452-2.106 7.819-3.807.655-.473 1.226-1.049 1.841-1.566a25.113 25.113 0 0 1 4.756-2.99c.993.016 1.98.157 2.938.42 1.373.378 2.715 1.008 4.141.981a5.97 5.97 0 0 0 3.482-1.339c.726-.562 1.39-1.339 1.497-2.232a2.864 2.864 0 0 0-1.069-2.41 4.862 4.862 0 0 0-.304-.236 2.973 2.973 0 0 0-1.074-2.076 7.12 7.12 0 0 0-2.429-1.24 5.21 5.21 0 0 0-1.534-.348 6.985 6.985 0 0 0-2.38.558c-1.518.489-3.082.818-4.668.981-.28.027-.851-.03-1.337-.035l-.165-.473c-1.854.857-4.012.151-6.044.156-.99 0-1.975.174-2.96.236-1.092.044-2.184.02-3.272-.071l-3.295-.21a38.79 38.79 0 0 1-4.199-.446c-.37-.754-.74-1.509-1.154-2.232a20.707 20.707 0 0 0-2.448-3.405c.374-.322.767-.62 1.177-.893l.08-.049c.103-.058.228-.12.366-.183a8.43 8.43 0 0 0 11.012-3.547 8.466 8.466 0 0 0 1.051-4.076 6.452 6.452 0 0 0 1.11-.558l.191-.129c.122-.092.238-.192.348-.299.053-.054.107-.107.156-.165.098-.116.183-.241.254-.375.027-.054.054-.103.076-.156.022-.054 0-.04.022-.063.022-.022.031-.08.045-.116.013-.035 0-.053.022-.08l.027-.107a.6.6 0 0 0 0-.085v-.196a.804.804 0 0 1 0-.099.804.804 0 0 0 0-.098v-.098a.804.804 0 0 0 0-.098v-.12a.878.878 0 0 0 0-.103v-.406a.54.54 0 0 0 0-.08 1.3 1.3 0 0 0 0-.126v-.071c0-.023 0-.09-.032-.134v-.063l-.04-.142v-.054c0-.049-.031-.098-.044-.147v-.045l-.054-.16v-.027c0-.076-.049-.156-.075-.232a61.183 61.183 0 0 0-1.079-2.87 6.977 6.977 0 0 0-1.24-2.17c-.789-.838-1.921-1.258-2.866-1.927-1.114-.786-1.948-1.897-2.893-2.888-.945-.99-2.091-1.888-3.45-2.053a6.748 6.748 0 0 0-3.147.576c-8.189 3.026-14.894 8.989-22.236 13.72-2.857 1.843-6.058 3.57-9.441 3.333l2.986 4.75c.143.231.29.445.446.686.156.241.312.447.477.67a5.38 5.38 0 0 0 1.565 1.437 3.422 3.422 0 0 0 .927.37c1.065.255 2.229.04 3.308-.174.37-.071.74-.147 1.105-.232l.446-.125h.071v.072c-.249.446-.486.852-.695 1.294a27.17 27.17 0 0 0-1.591 4.963c-.843 3.347-1.69 6.766-1.467 10.203.076 1.16.272 2.347-.062 3.463-.161.549-.446 1.111-.295 1.656.159.314.296.64.41.973.072.517-.338.964-.633 1.392-.294.429-.445 1.111-.026 1.41a2.398 2.398 0 0 0-1.592 1.987c.01.262-.042.524-.151.763a1.887 1.887 0 0 1-.446.415c-.453.38-.749.914-.834 1.5-.86 0-1.587.839-2.371 1.338a9.574 9.574 0 0 1-2.162.786c-2.153.687-4.012 2.102-5.693 3.593-.936.817-1.881 1.718-2.291 2.887-.134.384-.205.786-.321 1.174a8.1 8.1 0 0 1-1.034 2.116 15.285 15.285 0 0 1-3.121 3.49 8.281 8.281 0 0 0-1.604 1.722c-.683.987-2.069 1.281-2.8 2.232-.263.468-.561.916-.891 1.339-.567.536-1.423.58-2.145.893-1.689.7-2.469 2.677-3.976 3.722a.419.419 0 0 1-.299.098c-.129 0-.205-.156-.316-.232-.219-.147-.508-.036-.767.031-.258.067-.606.04-.673-.218-3.633-2.205-7.204-4.597-10.841-6.802l-1.659-1.004-8.871-5.383a.656.656 0 0 0-.699 0l-.277.192c-.446-.473-.94-.893-1.235-1.24-.12-.14-.24-.278-.365-.411a.541.541 0 0 0 .236-.045.447.447 0 0 0 .192-.58 1.46 1.46 0 0 0-.41-.522 9.937 9.937 0 0 1-1.066-1.219 11.252 11.252 0 0 0-1.172-1.535 2.151 2.151 0 0 0-1.739-.692 2.813 2.813 0 0 0-1.007.406 16.525 16.525 0 0 0-3.343 2.566.34.34 0 0 0-.106.122.34.34 0 0 0-.041.155c0 .09.089.156.098.241a.313.313 0 0 1-.085.223 9.315 9.315 0 0 1-2.109 1.924 72.885 72.885 0 0 0-3.321 2.642 4.647 4.647 0 0 0-1.551 1.897 3.713 3.713 0 0 0 .272 2.633c.74 1.745 2.037 3.191 3.321 4.588.211.288.51.498.851.598.272.038.547-.03.772-.187.789-.518.918-1.589.976-2.526.022-.447.049-.857.076-1.286a.58.58 0 0 1 .049-.25.621.621 0 0 1 .272-.218l1.225-.647a3.477 3.477 0 0 0-.115-.174 4.99 4.99 0 0 1 2.893-.188c.651.192 1.248.58 1.872.821a4.15 4.15 0 0 0 .446 2.42c2.287.236 4.346 1.253 6.392 2.28a50.968 50.968 0 0 1 4.806 2.718c1.26.821 2.493 1.68 3.7 2.575 1.711 1.268 3.365 2.611 5.001 3.968a24.19 24.19 0 0 0 3.419 2.522c3.219 1.807 7.534 1.87 10.489-.384 3.727-2.843 8.47-4.32 12.482-6.78a14.087 14.087 0 0 0 3.232-2.486c-.009.116-.027.231-.054.344-.24 1.111-1.199 1.915-1.56 3.04-.281.892-.178 1.923-.722 2.677-.414.576-1.19.986-1.212 1.696 0 .197.058.393.058.59-.023.248-.096.49-.214.709-.446 1.004-.945 2.057-1.859 2.678-.357.245-.812.468-.892.892a.85.85 0 0 1-.093.353c-.152.21-.486.098-.727.187-.334.125-.388.558-.522.893a1.446 1.446 0 0 1-1.457.857c-3.045-.37-6.036 1.009-9.103.928-1.057-.03-2.109-.138-3.17-.147-3.254-.027-6.441.893-9.575 1.785a5.07 5.07 0 0 0-.633 2.009 7.738 7.738 0 0 1-3.276.125 6.875 6.875 0 0 0-.82-.112c.078-.201.103-.42.071-.634a17.903 17.903 0 0 0-3.669 1.638c-.762.447-1.569 1.071-1.64 1.951-.011.339.037.677.142.999l.415 1.576c.051.291.178.564.37.79.138.134.321.214.446.357a1.4 1.4 0 0 1 .24.567l.348 1.365c.13.455.222.919.276 1.388.041.447 0 .857.032 1.286.046.706.149 1.407.307 2.097l.495 2.473c.111.691.307 1.366.584 2.008.209.447.49.83.66 1.277.133.343.196.709.356 1.035.289.53.743.95 1.293 1.196.192.114.407.181.629.197.633 0 1.087-.589 1.382-1.152a6.962 6.962 0 0 0 .922-3.356c0-.473-.093-.942-.133-1.415-.107-1.339.276-2.642.276-3.976a.784.784 0 0 0-.557-.813c.04-1.133.035-2.334.633-3.302a4.956 4.956 0 0 1 1.087-1.183c.165.527.348 1.049.553 1.558 3.393-.991 6.896-1.946 10.449-2.036Zm72.479-68.54c-.241.09-.486.18-.736.26-2.077.691-4.457 1.365-6.606.892a5.738 5.738 0 0 1-1.81-.893l-.156-.098c3.027-.53 6.187-.401 9.308-.16Z" fill="url(#a)"/><path d="M361.712 33.295a6.875 6.875 0 0 1 2.367-.549 5.18 5.18 0 0 1 1.524.353 7.162 7.162 0 0 1 2.425 1.25 2.904 2.904 0 0 1 1.075 2.41c-.103.892-.763 1.664-1.485 2.231a5.91 5.91 0 0 1-3.459 1.339c-1.418.022-2.755-.616-4.123-.995a11.833 11.833 0 0 0-3.058-.447 6.677 6.677 0 0 1-1.556-.098 1.665 1.665 0 0 1-1.195-.92 2.364 2.364 0 0 1 0-1.338c.103-.554.085-1.866.575-2.196.392-.268 1.783-.054 2.265-.094a22.34 22.34 0 0 0 4.645-.946Z" fill="#FBBEBE"/><path d="M329.888 24.31a20.616 20.616 0 0 1 3.454 4.464c1.57 2.74 2.568 5.927 4.931 8.033.628.53 1.294 1.011 1.992 1.442a5.749 5.749 0 0 0 1.81.892c2.122.478 4.503-.187 6.571-.892a41.57 41.57 0 0 0 5.942-2.678c.013.862.253 1.706.696 2.446.494.7 1.506 1.111 2.228.67a26.42 26.42 0 0 0-5.139 3.181c-.611.518-1.177 1.09-1.828 1.558-2.349 1.691-5.599 1.861-7.77 3.78a2.09 2.09 0 0 1-2.412.29c-.753-.446-1.266-1.214-1.885-1.834-1.222-1.223-2.88-1.937-4.079-3.182-.557-.576-1.003-1.259-1.574-1.821-.815-.803-1.876-1.34-2.625-2.232-.557-.656-.892-1.455-1.413-2.155-.446-.607-.972-1.138-1.369-1.786-.972-1.548-.963-3.57-.406-5.306.558-1.736 1.837-3.357 2.876-4.87Z" fill="#F86D70"/><path opacity=".1" d="M329.888 24.31a20.616 20.616 0 0 1 3.454 4.464c1.57 2.74 2.568 5.927 4.931 8.033.628.53 1.294 1.011 1.992 1.442a5.749 5.749 0 0 0 1.81.892c2.122.478 4.503-.187 6.571-.892a41.57 41.57 0 0 0 5.942-2.678c.013.862.253 1.706.696 2.446.494.7 1.506 1.111 2.228.67a26.42 26.42 0 0 0-5.139 3.181c-.611.518-1.177 1.09-1.828 1.558-2.349 1.691-5.599 1.861-7.77 3.78a2.09 2.09 0 0 1-2.412.29c-.753-.446-1.266-1.214-1.885-1.834-1.222-1.223-2.88-1.937-4.079-3.182-.557-.576-1.003-1.259-1.574-1.821-.815-.803-1.876-1.34-2.625-2.232-.557-.656-.892-1.455-1.413-2.155-.446-.607-.972-1.138-1.369-1.786-.972-1.548-.963-3.57-.406-5.306.558-1.736 1.837-3.357 2.876-4.87Z" fill="#000"/><path d="M250.66 65.526a4.623 4.623 0 0 0-1.257-1.138 3.803 3.803 0 0 0-2.349-.241c-1.989.303-3.834 1.214-5.582 2.231-1.408.808-2.808 1.705-3.815 2.977a3.06 3.06 0 0 0-.674 1.34c-.057.408-.022.824.103 1.218a2.953 2.953 0 0 0 1.591 2.062c.932.366 1.971-.023 2.907-.38 1.257-.486 2.639-.937 3.932-.553.958.285 1.783 1.013 2.795 1.04 1.19.036 2.153-.929 2.911-1.848.655-.803 2.09-2.254 1.997-3.383-.094-1.13-1.855-2.517-2.559-3.325ZM265.683 100.263a7.69 7.69 0 0 1-3.344.138c-.677-.125-1.506-.285-1.939.246a1.61 1.61 0 0 0-.272.66c-1.11 4.548-.093 9.373 1.783 13.68a.419.419 0 0 0 .125.187c.12.09.285.027.424-.031a5.043 5.043 0 0 0 1.261-.736c.856-.777 1.039-2.04 1.079-3.196.04-1.156.022-2.379.62-3.37.748-1.227 2.313-1.825 2.928-3.124.495-1.057.237-2.312-.2-3.392-.147-.375-.205-1.339-.553-1.522-.348-.183-1.516.353-1.912.46Z" fill="#FBBEBE"/><path d="M250.531 65.072a.447.447 0 0 0 .187-.58 1.516 1.516 0 0 0-.41-.527 9.195 9.195 0 0 1-1.061-1.223 12.276 12.276 0 0 0-1.173-1.535 2.157 2.157 0 0 0-1.734-.697c-.358.065-.699.201-1.003.402a16.22 16.22 0 0 0-3.321 2.553c-.075.076-.16.17-.142.277.017.107.089.152.098.24a.305.305 0 0 1-.081.22 9.206 9.206 0 0 1-2.095 1.914 73.26 73.26 0 0 0-3.298 2.633 4.589 4.589 0 0 0-1.538 1.888 3.762 3.762 0 0 0 .28 2.629c.745 1.75 2.042 3.196 3.322 4.602.214.286.513.497.855.602.27.037.544-.03.767-.188.78-.513.892-1.584.959-2.517l.071-1.29a.575.575 0 0 1 .049-.245.602.602 0 0 1 .272-.219l1.212-.642a3.905 3.905 0 0 0-3.566-1.857c-.323.077-.663.03-.954-.13a.788.788 0 0 1 0-1.088 2.404 2.404 0 0 1 1.052-.585c3.196-1.174 6.085-3.057 9.188-4.463.339-.172.716-.26 1.096-.255.312.023.678.206.968.08ZM263.124 111.81c-.143.268-.192.58-.348.843-.156.264-.495.447-.758.313a.789.789 0 0 1-.294-.397 16.69 16.69 0 0 1-1.092-9.846 6.203 6.203 0 0 1 .477-1.571c.236-.482.579-.973.481-1.5a17.617 17.617 0 0 0-3.646 1.625c-.758.446-1.556 1.067-1.627 1.941-.007.339.043.677.147 1l.419 1.576c.051.292.18.565.374.79.134.133.317.218.446.361.123.166.205.359.241.562l.352 1.366c.131.456.225.922.281 1.393.04.446 0 .856.036 1.285.05.705.154 1.404.312 2.093l.503 2.473c.114.691.312 1.365.589 2.008.209.446.49.83.664 1.281.129.344.196.71.357 1.035.289.529.741.95 1.288 1.201.192.113.407.181.628.201.629.022 1.079-.589 1.373-1.152a6.948 6.948 0 0 0 .892-3.347c0-.473-.098-.942-.138-1.415-.112-1.339.263-2.637.258-3.972.009-1.25-1.756-1.013-2.215-.147Z" fill="#F86D70"/><path d="M328.528 34.048a9.842 9.842 0 0 1-3.566-2.79 16.923 16.923 0 0 1-1.337-1.985 60.373 60.373 0 0 1-4.347-8.958c1.899.389 3.892.741 5.76.206a7.942 7.942 0 0 0 2.674-1.42 23.176 23.176 0 0 0 2.818-2.753 27.098 27.098 0 0 0 2.228 3.57c.477.643 2.091 1.95 1.971 2.825-.121.875-1.904 1.312-2.626 1.728l-.076.049a10.118 10.118 0 0 0-2.741 2.557c-1.4 1.99-1.886 4.766-.758 6.971Z" fill="#FBBEBE"/><path opacity=".1" d="M332.139 24.453a8.36 8.36 0 0 1-4.391-5.355 23.096 23.096 0 0 0 2.817-2.754 27.217 27.217 0 0 0 2.229 3.57c.477.643 2.091 1.95 1.971 2.825-.121.875-1.904 1.3-2.626 1.714Z" fill="#000"/><path d="M336.151 25.11c4.611 0 8.349-3.743 8.349-8.36 0-4.617-3.738-8.36-8.349-8.36-4.611 0-8.35 3.743-8.35 8.36 0 4.617 3.739 8.36 8.35 8.36Z" fill="#FBBEBE"/><path d="M317.887 68.82a3.889 3.889 0 0 1-3.842.095 7.403 7.403 0 0 1-1.659-1.397c-2.741-2.817-5.349-5.802-7.181-9.297a6.438 6.438 0 0 1-.811-2.397 2.628 2.628 0 0 1 .86-2.285 1.87 1.87 0 0 0 .446-.415c.107-.238.158-.498.147-.759a2.37 2.37 0 0 1 1.578-1.977c-.446-.303-.267-.977.022-1.41.29-.433.696-.893.624-1.393a7.623 7.623 0 0 0-.41-.973c-.16-.544.13-1.106.286-1.65.325-1.117.129-2.304.049-3.464-.237-3.437.597-6.847 1.422-10.19.364-1.697.89-3.356 1.569-4.954.209-.446.446-.892.686-1.29a34.24 34.24 0 0 1 2.804-3.905 5.067 5.067 0 0 1 1.913-1.713c.072-.032.147-.059.222-.08a4.847 4.847 0 0 1 1.703-.13c1.507.093 3.09.446 4.164 1.508 1.074 1.063 1.422 2.553 1.908 3.99.155.481.342.951.561 1.406.709 1.41 1.864 2.535 3.001 3.629l1.234 1.191c.62.598 1.694.447 2.278 1.076.238.296.415.635.522 1a15.541 15.541 0 0 1 1.137 5.056c.004.387-.018.773-.067 1.156a6.091 6.091 0 0 1-1.69 3.57c-1.07 1.032-2.559 1.54-3.624 2.576-.892.857-1.409 2.004-1.917 3.124l-2.946 6.49a36.71 36.71 0 0 0-1.833 4.574c-.927 3.12-.401 7.52-3.156 9.239Z" fill="#F86D70"/><path d="M292.144 105.597c-2.202.089-4.409.063-6.602.272-1.28.125-2.554.335-3.838.389-1.4.062-2.804-.049-4.208-.023-3.535.076-7.021 1.018-10.423 1.991a19.834 19.834 0 0 1-1.475-7.396 4.707 4.707 0 0 1 0-.504 5.08 5.08 0 0 1 .628-2.044c3.121-.893 6.286-1.785 9.527-1.74 1.056 0 2.104.124 3.156.156 3.053.093 6.022-1.277 9.053-.893a1.423 1.423 0 0 0 1.449-.852c.129-.33.183-.764.517-.893.241-.09.571.022.722-.183a.942.942 0 0 0 .094-.353c.089-.446.539-.647.892-.892.891-.616 1.395-1.67 1.841-2.678.117-.218.188-.458.209-.705 0-.197-.062-.393-.058-.594 0-.705.789-1.111 1.199-1.687.54-.759.446-1.785.709-2.678.357-1.125 1.306-1.923 1.543-3.03.026-.113.044-.228.053-.344a13.947 13.947 0 0 1-3.214 2.473c-3.959 2.441-8.693 3.9-12.388 6.726-2.933 2.231-7.231 2.164-10.44.348a24.173 24.173 0 0 1-3.415-2.53c-1.631-1.34-3.281-2.71-4.988-3.986a67.529 67.529 0 0 0-3.696-2.585 50.846 50.846 0 0 0-4.787-2.807c-2.042-1.035-4.097-2.062-6.37-2.307a4.696 4.696 0 0 1-.125-3.856 13.008 13.008 0 0 1 2.086-3.37 9.714 9.714 0 0 1 2.389-2.441.65.65 0 0 1 .696 0l8.835 5.431 1.654 1.013c3.624 2.232 7.19 4.62 10.814 6.838.067.254.419.285.674.219.254-.067.543-.174.762-.027.107.071.183.205.316.232a.448.448 0 0 0 .295-.098c1.497-1.031 2.264-3.013 3.945-3.705.717-.294 1.569-.339 2.131-.892.332-.422.63-.87.891-1.34.727-.95 2.104-1.236 2.777-2.23a8.184 8.184 0 0 1 1.592-1.715 15.08 15.08 0 0 0 3.12-3.476 8.06 8.06 0 0 0 1.021-2.107c.116-.388.187-.79.316-1.174.406-1.17 1.338-2.066 2.269-2.878 1.69-1.482 3.513-2.888 5.653-3.57a9.564 9.564 0 0 0 2.153-.782c.86-.527 1.649-1.504 2.635-1.276.373.116.71.328.976.616a31.105 31.105 0 0 1 3.321 3.807c1.59 2.026 3.178 4.053 4.765 6.083a7.026 7.026 0 0 0 1.868 1.852 5.117 5.117 0 0 0 3.455.446c-.156 1.656-1.471 3.022-2.015 4.593-.263.763-.366 1.575-.562 2.356-.276.98-.629 1.937-1.056 2.861-1.07 2.495-2.149 5.003-3.682 7.244-.794 1.165-1.708 2.231-2.604 3.325-3.535 4.27-6.241 9.421-10.253 13.264-.971.942-1.587 2.232-2.674 3.039-1.182.875-2.706 1.009-4.128 1.067Z" fill="#434175"/><path opacity=".1" d="M308.941 48.969c-.393.019-.776.134-1.115.334.816-.285 1.81.478 2.563.117.353-.17.299-.22 0-.322-.45-.152-.994-.013-1.448-.13Z" fill="#000"/><path d="m449.674 196.456-32.766 11.649 2.088 5.889 32.766-11.65-2.088-5.888ZM427.869 220.314l29.826-10.603a3.114 3.114 0 0 1 2.385.123 3.124 3.124 0 0 1-.297 5.765l-29.826 10.604-2.088-5.889Z" fill="#D0D2D5"/><path d="m399.454 201.999 7.268-2.583a25.824 25.824 0 0 1 19.762 1.019 25.88 25.88 0 0 1 13.254 14.712l2.581 7.276c.897 2.53.754 5.313-.399 7.737a10.112 10.112 0 0 1-5.746 5.189l-22.104 7.859a10.1 10.1 0 0 1-7.728-.399 10.12 10.12 0 0 1-5.183-5.753l-7.849-22.131a10.122 10.122 0 0 1 6.144-12.926Z" fill="#3F3D56"/><path opacity=".1" d="M308.539 53.324a1.726 1.726 0 0 0-.94-.058c-.467.05-.901.263-1.226.603a.668.668 0 0 0 .548 0c.292-.074.592-.107.892-.099.258 0 1.03.286 1.23.161.294-.192-.303-.53-.504-.607ZM333.053 39.25a8.662 8.662 0 0 1-1.908-.92c-1.565-.995-2.88-2.348-4.427-3.365a24.596 24.596 0 0 0-2.42-1.34l-5.22-2.677a5.298 5.298 0 0 0-1.266-.518c-.852-.187-1.81.384-2.675.263a3.224 3.224 0 0 1-2.175-1.504 7.822 7.822 0 0 1-.981-2.53 13.006 13.006 0 0 1-.299-1.602 7.144 7.144 0 0 1-.031-1.692 4.231 4.231 0 0 1 1.471-2.883 5.39 5.39 0 0 1 2.068-.893c.47-.119.949-.198 1.431-.236.275-.023.551-.023.825 0 1.97.156 3.638 1.495 4.953 2.968.691.776 1.337 1.61 1.997 2.4.154.482.342.951.561 1.407.709 1.41 1.864 2.535 3 3.628l1.235 1.192c.62.598 1.694.446 2.278 1.075.238.296.415.636.522 1a15.535 15.535 0 0 1 1.128 5.07 8.43 8.43 0 0 1-.067 1.156ZM292.456 96.367l-26.863 3.959a5.08 5.08 0 0 1 .629-2.044c3.12-.893 6.285-1.786 9.526-1.741 1.057 0 2.104.125 3.156.156 3.054.094 6.023-1.276 9.054-.892a1.425 1.425 0 0 0 1.449-.853c.129-.33.183-.763.517-.893.241-.089.57.023.722-.183a.94.94 0 0 0 .094-.352c.089-.447.539-.647.891-.893.892-.616 1.395-1.669 1.841-2.678a1.82 1.82 0 0 0 .21-.705c0-.196-.063-.393-.058-.593 0-.706.789-1.112 1.199-1.688.539-.758.446-1.785.709-2.677.356-1.125 1.306-1.924 1.542-3.03l.116-.153 4.574-1.785-9.308 17.045Z" fill="#000"/><path opacity=".1" d="M189.455 313.162c104.633 0 189.455-6.595 189.455-14.729s-84.822-14.728-189.455-14.728C84.822 283.705 0 290.299 0 298.433s84.822 14.729 189.455 14.729ZM356.942 351.999c67.704 0 122.588-7.147 122.588-15.964s-54.884-15.965-122.588-15.965-122.589 7.148-122.589 15.965 54.885 15.964 122.589 15.964Z" fill="#1A75FF"/><path d="m211.855 286.507.125-6.32a470.004 470.004 0 0 1 17.831-.678c3.45-.062 6.945-.085 10.284.781 2.314.603 4.502 1.62 6.785 2.334 4.547 1.42 9.361 1.607 14.135 1.736 4.632.13 9.469.174 13.628-1.874 7.199-3.571 10.226-12.341 10.578-20.37.352-8.029-1.244-16.12-.134-24.1" stroke="#3F3D56" stroke-width="12" stroke-miterlimit="10"/><path d="m228.153 298.876-79.433-1.017.232-2.04 3.842-33.647h69.755l5.136 33.647.392 2.549.076.508Z" fill="#D0D2D5"/><path opacity=".1" d="M228.077 298.367h-39.643l-39.714-.509.232-2.04h78.733l.392 2.549Z" fill="#000"/><path d="M240.884 296.328H135.48v2.549h105.404v-2.549Z" fill="#D0D2D5"/><path d="M341.447 60.083a6.65 6.65 0 0 0-1.91-4.719 6.633 6.633 0 0 0-4.688-1.975H40.494a6.624 6.624 0 0 0-4.686 1.976 6.644 6.644 0 0 0-1.911 4.718v178.64h307.55V60.083Z" fill="#3F3D56"/><path d="M33.897 236.936v20.927a6.61 6.61 0 0 0 1.932 4.671 6.596 6.596 0 0 0 4.665 1.934H334.85c1.75 0 3.428-.696 4.665-1.934a6.608 6.608 0 0 0 1.933-4.671v-20.927H33.897Z" fill="#D0D2D5"/><path d="M330.244 64.625H46.628v160.587h283.616V64.625Z" fill="#2F2E41"/><path d="M189.201 256.53a6.869 6.869 0 0 0 5.942-3.419l-3.771-.62 4.079.031a6.895 6.895 0 0 0 .129-5.454l-5.47 2.843 5.046-3.713a6.869 6.869 0 0 0-11.816-.295 6.88 6.88 0 0 0 .48 7.994 6.872 6.872 0 0 0 5.381 2.633Z" fill="#1A75FF"/><path opacity=".1" d="m196.075 264.465 31.69 31.862-4.864-31.862h-26.826Z" fill="#000"/><path d="m332.183 63.318 17.02-22.579c1.017-1.339 2.064-2.736 3.459-3.7 4.012-2.776 9.892-1.134 13.249 2.423 3.357 3.558 4.765 8.507 5.795 13.292a141.262 141.262 0 0 1 3.192 33.54c-.143 5.931-.673 11.925-2.559 17.553-2.862 8.56-8.661 15.768-13.043 23.655-7.057 12.706-10.013 29.652-1.079 41.118 2.911 3.736 6.874 6.592 9.562 10.493 3.035 4.405 4.217 9.792 5.349 15.023 1.689 7.899 3.383 15.848 3.695 23.922 1.008 26.104-13.859 52.187-36.816 64.603-15.937 8.623-35.216 11.122-49.076 22.815-4.903 4.12-9.129 10.176-7.926 16.451.981 5.093 5.448 8.962 10.351 10.645 4.904 1.683 10.222 1.544 15.393 1.25 12.42-.711 24.78-2.24 36.999-4.575 10.356-1.982 20.693-3.691 29.72-9.145a6.232 6.232 0 0 0 2.251-2.022c.584-.977.683-2.16.763-3.298.245-3.352.477-6.829-.705-9.975-1.377-3.678-4.52-6.463-6.026-10.087-1.507-3.624-1.235-7.797-.259-11.604 1.204-4.704 3.392-9.086 5.594-13.411 2.145-4.213 4.32-8.413 6.843-12.408 7.106-11.229 16.815-20.53 26.421-29.702" stroke="#3F3D56" stroke-width="12" stroke-miterlimit="10"/><path d="M360.348 30.951a6.676 6.676 0 0 1 2.367-.549c.522.041 1.036.158 1.524.348a7.176 7.176 0 0 1 2.425 1.255 2.903 2.903 0 0 1 1.075 2.41c-.103.892-.763 1.66-1.485 2.231a5.888 5.888 0 0 1-3.459 1.34c-1.418 0-2.755-.617-4.124-1a11.817 11.817 0 0 0-3.058-.447 6.671 6.671 0 0 1-1.555-.103 1.665 1.665 0 0 1-1.195-.914 2.395 2.395 0 0 1 0-1.317c.107-.553.089-1.87.58-2.2.392-.264 1.783-.05 2.264-.09a22.922 22.922 0 0 0 4.641-.964Z" fill="#FBBEBE"/><path d="M354.165 31.398c-1.846.848-4.012.143-6.018.138-.986 0-1.966.165-2.947.223-1.087.04-2.175.01-3.259-.084l-3.263-.224a27.8 27.8 0 0 1-5.701-.785c-1.596-1.884-4.186-2.714-6.112-4.249-1.542-1.232-2.648-2.91-3.963-4.387-1.315-1.478-2.982-2.812-4.948-2.968a7.31 7.31 0 0 0-2.26.24 5.268 5.268 0 0 0-2.064.893 4.22 4.22 0 0 0-1.471 2.884 9.685 9.685 0 0 0 .326 3.293c.177.896.509 1.754.98 2.535a3.283 3.283 0 0 0 2.18 1.505c.86.116 1.814-.447 2.675-.268.442.117.868.29 1.266.517l5.224 2.678c.83.402 1.636.849 2.416 1.34 1.552 1.017 2.862 2.37 4.427 3.364 1.565.996 3.539 1.62 5.278.969 5.349-1.995 11.376-1.067 17.051-.571-.036-.108.196-.206.263-.295a4.8 4.8 0 0 0 .891-3.343c-.138-1.174-.584-2.28-.971-3.405Z" fill="#F86D70"/><path d="M345.191 16.361a3.057 3.057 0 0 0 1.338-1.196c.508-.942.196-2.098-.152-3.124a47.653 47.653 0 0 0-1.088-2.87 6.898 6.898 0 0 0-1.239-2.173c-.789-.844-1.917-1.268-2.857-1.933-1.115-.79-1.948-1.91-2.889-2.896-.941-.987-2.091-1.902-3.446-2.067a6.652 6.652 0 0 0-3.04.567c-8.14 2.995-14.795 8.926-22.084 13.63-2.835 1.835-6.018 3.544-9.361 3.299l2.991 4.757c.762 1.219 1.618 2.508 2.956 3.03 1.181.447 2.5.224 3.74 0a10.072 10.072 0 0 0 2.848-.856c1.783-.969 2.929-2.982 4.846-3.682 1.431-.523 3.026-.201 4.457.299s2.836 1.178 4.342 1.383c2.675.362 5.35-.848 7.578-2.41 1.338-.928 2.555-1.995 4.012-2.678a6.042 6.042 0 0 1 3.567-.629c1.35.187 2.144.25 3.481-.45Z" fill="#2F2E41"/><path opacity=".1" d="M346.529 15.166c.499-.924.205-2.057-.134-3.053.11.57.031 1.161-.223 1.683a3.12 3.12 0 0 1-1.337 1.196c-1.338.705-2.149.643-3.522.415a6.083 6.083 0 0 0-3.566.63c-1.449.7-2.675 1.785-4.012 2.677-2.229 1.562-4.904 2.767-7.578 2.406-1.512-.201-2.907-.893-4.342-1.384-1.436-.49-3.036-.821-4.458-.299-1.912.7-3.045 2.718-4.841 3.682-.902.425-1.862.713-2.849.857-1.243.241-2.563.478-3.74 0-1.337-.517-2.193-1.812-2.96-3.03l-2.117-3.37h-.513l2.991 4.758c.763 1.218 1.618 2.508 2.956 3.03 1.181.447 2.501.223 3.74 0a10.063 10.063 0 0 0 2.848-.857c1.784-.968 2.929-2.981 4.846-3.682 1.431-.522 3.027-.2 4.458.3s2.835 1.177 4.342 1.383c2.674.361 5.349-.848 7.578-2.41 1.337-.929 2.554-1.995 4.012-2.678a6.037 6.037 0 0 1 3.566-.63c1.373.224 2.184.286 3.517-.415a3.062 3.062 0 0 0 1.338-1.209Z" fill="#000"/><path d="M369.575 320.455c.263-.411.591-.776.972-1.08 1.948-1.839 2.853-4.544 3.334-7.195.482-2.651.62-5.356 1.391-7.949a25.69 25.69 0 0 1 1.569-3.869c.446-.955 1.003-2.83 1.824-3.495.159-.139.353-.233.561-.272a6.536 6.536 0 0 1 1.614-2.151c1.275-1.156 2.831-2.076 3.682-3.571a7.88 7.88 0 0 1 .86-1.468c.575-.638 1.485-.893 2.015-1.567.691-.866.535-2.102.446-3.209-.089-1.107 0-2.423.954-2.999.571-.352 1.306-.321 1.899-.629.892-.446 1.244-1.576 1.226-2.58-.018-1.004-.33-1.981-.41-2.981-.25-3.196 1.854-6.373 1.038-9.471-.307-1.174-1.007-2.196-1.529-3.285a7.655 7.655 0 0 1-.445-1.133c-1.39.552-2.85.905-4.338 1.048 2.456-5.516 1.832-11.929 2.978-17.852l-.147-.205a9.245 9.245 0 0 1-1.881-5.289c0-2.232 1.029-4.271 1.493-6.427.392-1.839.379-3.753.892-5.556.359-1.12.832-2.2 1.413-3.223a64.127 64.127 0 0 1 1.752-3.048c.57-1.892 1.142-3.785 1.716-5.677.802-2.678 1.627-5.356 3.187-7.65.571-.843.745-2.544 1.623-3.053a3.895 3.895 0 0 1 2.318-.406c1.239-.696 2.327-1.7 2.483-3.075.015-.3-.015-.601-.089-.892h-.152c-1.966-.183-2.955-1.915-3.976-3.428-1.654-2.459-1.021-5.78 0-8.569a5.8 5.8 0 0 1 1.337-2.361c1.431-1.339 3.696-1.045 5.541-1.692.599-.262 1.21-.493 1.832-.692 1.226-.29 2.51.116 3.633.679 1.124.562 2.171 1.303 3.348 1.749 1.177.447 2.63.799 2.92 2.009.082.407.046.83-.103 1.218a4.535 4.535 0 0 1-1.373 1.986 7.945 7.945 0 0 1 .795 3.316 7.953 7.953 0 0 1-5.64 7.766 21.85 21.85 0 0 0-.945 1.665c-.517 1-.954 2.178-.78 3.249.323.341.621.705.891 1.089 1.28 1.785 2.006 3.883 2.675 5.972a62.34 62.34 0 0 1 2.157 8.154c1.088 2.312 2.417 4.525 3.206 6.958a15.707 15.707 0 0 0 4.181-.558l3.762-.857c1.306-.295 2.675-.616 3.7-1.482.544-.446.968-1.04 1.52-1.486.553-.446 1.663-.96 2.269-.594.111.068.214.147.308.237.548-1.116 4.056 3.45 1.658 3.901l.156.446c.317.924.99 2.049.82 3.013l-16.743 5.752a10.334 10.334 0 0 1-3.37.746 5.436 5.436 0 0 1-1.337-.179v.888c-.045 5.887.891 11.738 1.065 17.621.031 1.071 0 2.231-.677 3.07-.758.92-2.105 1.098-3.277.893a7.34 7.34 0 0 1-.829-.183 31.08 31.08 0 0 0-.856 4.508l-1.11 7.926a11.846 11.846 0 0 0-.174 2.473c.129 1.865 1.115 3.543 1.828 5.271.713 1.727 1.137 3.793.196 5.404-.29.5-.695.929-.958 1.446a5.839 5.839 0 0 0-.446 2.531c-.068 2.41-.134 4.817-.196 7.221a.843.843 0 0 1 .561.116c.928.719.825 4.164.892 5.231.071 1.785 0 3.606.098 5.409.12 2.438.521 4.854 1.195 7.199.16.762.512 1.47 1.021 2.058.52.452 1.14.775 1.809.942a20.741 20.741 0 0 0 6.874.937c.941-.031 1.922-.121 2.795.236.874.357 1.578 1.339 1.262 2.232-.272.75-1.097 1.107-1.841 1.388a28.9 28.9 0 0 0-4.904 2.258 13.06 13.06 0 0 1-1.899 1.076 9.639 9.639 0 0 1-1.952.482l-7.899 1.339c-1.619.281-3.567.446-4.596-.893-.558-.723-.638-1.705-.611-2.62.044-1.785.401-3.601.165-5.387a16.34 16.34 0 0 0-.825-3.097l-2.371-7.016c-.794-2.352-1.596-4.722-1.904-7.186-.111-.892-.102-1.905.58-2.463a1.58 1.58 0 0 1 .588-.304c.027-2.151.308-4.307.187-6.458-.031-.535-.084-1.075-.129-1.611a7.474 7.474 0 0 0-1.105 1.303c-.758 1.192-1.039 2.772-2.203 3.571-.989.678-2.456.642-3.151 1.624a4.589 4.589 0 0 0-.5 1.21 8.726 8.726 0 0 1-1.783 2.834 14.66 14.66 0 0 1-1.101 2.83c-.656 1.383-1.31 2.767-1.961 4.15-.7 1.482-1.404 2.964-2.229 4.365a12.048 12.048 0 0 0-1.493 2.883c-.629 2.205.392 4.624 2.019 6.249 1.627 1.624 3.762 2.557 5.866 3.427.225.074.43.196.602.357.182.217.277.494.268.777 0 1.031-.843 1.915-1.815 2.231a6.79 6.79 0 0 1-3.044.112c-5.697-.692-11.376-2.084-16.414-4.856a5.882 5.882 0 0 1-1.961-1.513 2.31 2.31 0 0 1-.348-2.289Z" fill="url(#b)"/><path d="M393.656 220.37a66.487 66.487 0 0 0-2.675 4.49 16.63 16.63 0 0 0-1.413 3.195c-.521 1.786-.504 3.696-.891 5.517-.446 2.142-1.489 4.186-1.489 6.378a9.157 9.157 0 0 0 1.881 5.253 25.264 25.264 0 0 0 3.932 4.061 83.84 83.84 0 0 0 5.563-27.319c.045-1.294.049-2.633-.419-3.838-.294-.759-1.681-2.838-2.577-2.022-.325.299-.41 1.647-.61 2.093a16.181 16.181 0 0 1-1.302 2.192Z" fill="#F86D70"/><path opacity=".1" d="M393.656 220.37a66.487 66.487 0 0 0-2.675 4.49 16.63 16.63 0 0 0-1.413 3.195c-.521 1.786-.504 3.696-.891 5.517-.446 2.142-1.489 4.186-1.489 6.378a9.157 9.157 0 0 0 1.881 5.253 25.264 25.264 0 0 0 3.932 4.061 83.84 83.84 0 0 0 5.563-27.319c.045-1.294.049-2.633-.419-3.838-.294-.759-1.681-2.838-2.577-2.022-.325.299-.41 1.647-.61 2.093a16.181 16.181 0 0 1-1.302 2.192Z" fill="#000"/><path d="M441.51 225.249c1.743-.29 3.678-.147 5.033.982a4.16 4.16 0 0 1 1.444 2.749c.116 1.241-.602 2.705-1.841 2.803a5.923 5.923 0 0 1-.892-.058 13.243 13.243 0 0 0-2.335.192 9.552 9.552 0 0 1-8.131-3.285c-1.061-1.312.338-1.915 1.6-2.183 1.721-.366 3.401-.906 5.122-1.2Z" fill="#FBBEBE"/><path d="m411.696 265.557-1.105 7.864c-.143.81-.2 1.633-.169 2.455.129 1.852 1.11 3.517 1.823 5.231.713 1.714 1.141 3.762.2 5.356-.289.499-.7.919-.958 1.432a5.809 5.809 0 0 0-.446 2.517l-.303 11.158a70.572 70.572 0 0 1-10.333-.058.597.597 0 0 1-.383-.098.621.621 0 0 1-.13-.406c-.151-2.611.303-5.226.156-7.837-.053-.955-.191-1.906-.205-2.866-.058-3.887 1.864-7.694 1.284-11.541a25.473 25.473 0 0 0-.713-2.866c-1.832-6.694-1.444-13.732-1.043-20.641a.527.527 0 0 1 .089-.313.552.552 0 0 1 .245-.134 12.683 12.683 0 0 1 11.492 2.192c.486.392 1.712.772 2.033 1.236.446.656-.143 1.303-.397 1.999a25.463 25.463 0 0 0-1.137 5.32Z" fill="#3F3D56"/><path opacity=".1" d="m411.696 265.557-1.105 7.864c-.143.81-.2 1.633-.169 2.455.129 1.852 1.11 3.517 1.823 5.231.713 1.714 1.141 3.762.2 5.356-.289.499-.7.919-.958 1.432a5.809 5.809 0 0 0-.446 2.517l-.303 11.158a70.572 70.572 0 0 1-10.333-.058.597.597 0 0 1-.383-.098.621.621 0 0 1-.13-.406c-.151-2.611.303-5.226.156-7.837-.053-.955-.191-1.906-.205-2.866-.058-3.887 1.864-7.694 1.284-11.541a25.473 25.473 0 0 0-.713-2.866c-1.832-6.694-1.444-13.732-1.043-20.641a.527.527 0 0 1 .089-.313.552.552 0 0 1 .245-.134 12.683 12.683 0 0 1 11.492 2.192c.486.392 1.712.772 2.033 1.236.446.656-.143 1.303-.397 1.999a25.463 25.463 0 0 0-1.137 5.32Z" fill="#000"/><path d="M391.026 263.183c.521 1.085 1.221 2.098 1.529 3.263.816 3.075-1.284 6.248-1.034 9.399.08.995.388 1.964.41 2.959.022.995-.343 2.102-1.226 2.557-.593.308-1.337.277-1.895.625-.94.571-1.047 1.884-.954 2.977.094 1.093.246 2.325-.445 3.187-.531.665-1.44.919-2.011 1.548a7.754 7.754 0 0 0-.865 1.46c-.851 1.486-2.402 2.401-3.677 3.57-1.275 1.17-2.354 2.883-1.783 4.499.419 1.192 1.595 1.924 2.728 2.482a28.952 28.952 0 0 0 6.495 2.298c.241.072.497.084.744.036a1.62 1.62 0 0 0 .651-.447c1.315-1.289 2.675-2.642 3.281-4.378.109-.422.277-.826.499-1.2.696-.973 2.158-.942 3.152-1.612 1.159-.79 1.44-2.361 2.198-3.543.717-1.116 1.867-1.884 2.674-2.928 1.338-1.732 1.699-4.039 2.675-6.016.414-.844.945-1.625 1.275-2.504.333-1.047.538-2.131.61-3.227.629-5.213 2.229-10.461 1.222-15.621-.223-1.138-.566-2.231-.709-3.401-.25-2.026.143-4.092-.156-6.114a1.666 1.666 0 0 0-.673-1.294 1.843 1.843 0 0 0-.767-.161 52.704 52.704 0 0 0-7.926.183c-1.337.129-2.839.402-3.637 1.495-.682.933-.647 2.191-.892 3.33-.267 1.396-.976 2.164-1.72 3.262-.745 1.098-.321 2.187.227 3.316Z" fill="#3F3D56"/><path d="M401.31 299.451c-.704 0-1.484-.04-2.028.406-.678.554-.691 1.576-.58 2.451.312 2.441 1.11 4.793 1.908 7.141l2.372 6.967c.376.993.652 2.022.824 3.07.237 1.785-.12 3.571-.165 5.356 0 .892.058 1.883.616 2.602 1.007 1.294 2.973 1.142 4.591.866l7.895-1.339a9.646 9.646 0 0 0 1.952-.478c.66-.304 1.294-.662 1.895-1.071a29.117 29.117 0 0 1 4.903-2.232c.74-.276 1.569-.633 1.837-1.379.316-.892-.388-1.87-1.262-2.231-.873-.362-1.85-.268-2.795-.237a20.819 20.819 0 0 1-6.865-.932 4.28 4.28 0 0 1-1.809-.933 4.52 4.52 0 0 1-1.026-2.04 31.84 31.84 0 0 1-1.194-7.141c-.09-1.785-.027-3.57-.099-5.356-.044-1.057.058-4.463-.891-5.19-.709-.545-3.629.959-4.583 1.178a22.025 22.025 0 0 1-5.496.522ZM375.299 304.415c-.767 2.562-.892 5.262-1.386 7.891-.495 2.629-1.382 5.316-3.33 7.141-.381.3-.708.662-.968 1.071a2.264 2.264 0 0 0 .335 2.334 5.841 5.841 0 0 0 1.957 1.504c5.032 2.75 10.698 4.133 16.409 4.821a6.846 6.846 0 0 0 3.04-.108c.972-.33 1.832-1.205 1.814-2.231a1.133 1.133 0 0 0-.267-.768 1.656 1.656 0 0 0-.602-.352c-2.104-.866-4.244-1.812-5.867-3.406-1.622-1.593-2.648-4.017-2.019-6.186a12.236 12.236 0 0 1 1.489-2.86 47.168 47.168 0 0 0 2.229-4.33l1.961-4.119c.571-1.201 1.155-2.441 1.248-3.776a18.066 18.066 0 0 1-7.226-1.156 11.38 11.38 0 0 1-2.973-1.785c-.758-.634-1.449-1.812-2.47-.986-.82.66-1.337 2.517-1.823 3.463a26.512 26.512 0 0 0-1.551 3.838Z" fill="#2F2E41"/><path d="M404.034 202.128c-.197 1.709-1.855 2.843-3.437 3.517l10.012 3.204c-.647-1.24-.121-2.758.521-4.016a22.777 22.777 0 0 1 1.783-2.857c.099-.138.21-.317.139-.473a.497.497 0 0 0-.281-.218c-2.06-.92-4.182-1.87-6.433-2.205-.651-.098-1.881-.357-2.367.308s.17 1.95.063 2.74Z" fill="#FBBEBE"/><path opacity=".1" d="M404.034 202.128c-.197 1.709-1.855 2.843-3.437 3.517l10.012 3.204c-.647-1.24-.121-2.758.521-4.016a22.777 22.777 0 0 1 1.783-2.857c.099-.138.21-.317.139-.473a.497.497 0 0 0-.281-.218c-2.06-.92-4.182-1.87-6.433-2.205-.651-.098-1.881-.357-2.367.308s.17 1.95.063 2.74Z" fill="#000"/><path d="M409.869 203.517c4.338 0 7.854-3.521 7.854-7.864s-3.516-7.864-7.854-7.864-7.855 3.521-7.855 7.864 3.517 7.864 7.855 7.864Z" fill="#FBBEBE"/><path d="M416.654 260.355c-.758.893-2.1 1.089-3.272.893-2.742-.447-4.989-2.468-7.668-3.196-3.29-.893-6.776.254-9.878 1.656-3.103 1.401-6.196 3.102-9.593 3.369 3.071-6.855 1.315-15.107 4.248-22.02.722-1.687 1.725-3.321 1.886-5.146.2-2.272-.932-4.463-1.106-6.726-.16-2.013.446-4.017 1.021-5.932l2.153-7.074c.802-2.633 1.627-5.315 3.183-7.587.57-.835.749-2.522 1.622-3.03 1.908-1.098 4.801.29 6.87.366 2.068.075 3.954 1.548 5.162 3.213 1.279 1.758 2.006 3.852 2.675 5.923a55.971 55.971 0 0 1 2.38 9.475c.067.482.125.964.169 1.45.446 4.584-.205 9.194-.24 13.796v.035c-.04 5.838.891 11.645 1.07 17.482.026 1.085 0 2.25-.682 3.053Z" fill="#F86D70"/><path opacity=".1" d="M416.266 239.824c-1.538-.388-2.933-1.379-4.124-2.468a17.382 17.382 0 0 1-2.737-3.102 22.493 22.493 0 0 1-2.358-4.981 57.776 57.776 0 0 1-3.12-14.406c-.116-1.339-.152-2.772.646-3.834a3.226 3.226 0 0 1 3.896-.951c1.057.518 1.739 1.558 2.367 2.549 1.257 1.977 2.519 3.972 3.326 6.168.356.973.619 1.977.967 2.954.354.964.761 1.907 1.221 2.825.067.482.125.964.17 1.451.414 4.561-.219 9.171-.254 13.795Z" fill="#000"/><path d="M404.591 210.167c-.794 1.058-.758 2.508-.647 3.834a57.747 57.747 0 0 0 3.121 14.402 22.06 22.06 0 0 0 2.358 4.981 17.27 17.27 0 0 0 2.737 3.102c1.516 1.388 3.361 2.624 5.416 2.642a10.451 10.451 0 0 0 3.37-.736l16.721-5.686c.17-.96-.503-2.071-.82-2.991l-.891-2.651c-.254-.727-.553-1.517-1.213-1.914-.66-.398-1.716.147-2.269.589-.553.442-.976 1.022-1.515 1.472-1.035.857-2.394 1.174-3.7 1.469l-3.758.848c-1.363.37-2.77.556-4.182.553-1.047-3.2-3.04-6.02-4.168-9.198-.347-.973-.615-1.977-.972-2.95-.806-2.196-2.068-4.191-3.321-6.168-.628-.996-1.31-2.035-2.367-2.549a3.226 3.226 0 0 0-3.9.951Z" fill="#F86D70"/><path d="M407.364 197.424a3.96 3.96 0 0 1 .472-1.468 1.248 1.248 0 0 1 1.337-.594c.785.245 1.048 1.464 1.868 1.504.553.027.95-.536 1.124-1.067.173-.531.267-1.124.682-1.499.288-.217.619-.37.971-.447 1.904-.602 3.87-1.718 4.503-3.615.146-.384.182-.801.102-1.205-.29-1.2-1.783-1.562-2.92-1.999-1.136-.438-2.228-1.17-3.343-1.732-1.114-.562-2.407-.964-3.633-.678-.623.196-1.234.425-1.832.687-1.846.638-4.11.344-5.541 1.674a5.786 5.786 0 0 0-1.337 2.343c-1.003 2.771-1.632 6.07.022 8.507 1.016 1.504 2.01 3.222 3.972 3.4 2.282.206 3.191-1.883 3.553-3.811Z" fill="#2F2E41"/><g opacity=".1" fill="#000"><path opacity=".1" d="M410.85 194.854c.173-.527.267-1.125.677-1.5.29-.214.621-.366.972-.446 1.908-.603 3.869-1.714 4.507-3.615.145-.385.179-.802.098-1.205a1.504 1.504 0 0 0-.237-.531c.727.312 1.36.736 1.538 1.477.08.403.045.821-.102 1.205-.633 1.897-2.599 3.013-4.502 3.615a2.499 2.499 0 0 0-.972.446c-.415.375-.508.973-.682 1.5-.174.527-.571 1.093-1.124 1.067-.552-.027-.82-.531-1.172-.955.486-.063.834-.572.999-1.058ZM402.505 200.281c2.291.21 3.196-1.874 3.566-3.802.06-.516.221-1.015.472-1.468a1.24 1.24 0 0 1 1.338-.59c.423.13.695.549.985.893a1.334 1.334 0 0 0-1.008.625 3.99 3.99 0 0 0-.472 1.468c-.361 1.928-1.271 4.017-3.566 3.803a3.651 3.651 0 0 1-2.354-1.219c.328.153.679.251 1.039.29Z"/></g><path d="m76.13 290.231 8.532-5.025a20.66 20.66 0 0 0-4.364-5.222L64.2 284.996l12.633-7.426a20.485 20.485 0 0 0-20.305.343 20.512 20.512 0 0 0-7.364 7.499 20.547 20.547 0 0 0-2.688 10.166c0 11.336 9.178 11.734 20.505 11.734 11.328 0 20.506-.398 20.506-11.734a20.418 20.418 0 0 0-1.783-8.328l-9.575 2.981Z" fill="#1A75FF"/><path opacity=".1" d="M78.3 301.255a15.96 15.96 0 0 0-3.022-2.379c-1.551-1.031-3.151-2.084-4.98-2.432-1.604-.308-3.258-.049-4.903-.139a11.427 11.427 0 0 1-7.493-3.441c-1.164-1.205-2.082-2.677-3.482-3.61-1.51-.991-3.428-1.205-5.22-.96a13.97 13.97 0 0 0-1.542.317 20.507 20.507 0 0 0-1.213 6.967c0 11.336 9.179 11.733 20.506 11.733 5.497 0 10.485-.093 14.167-1.486l-.615-1.151a16.117 16.117 0 0 0-2.202-3.419Z" fill="#000"/><path d="m260.315 318.934-11.318-6.664a27.272 27.272 0 0 1 5.795-6.926l21.348 6.645-16.73-9.845a27.157 27.157 0 0 1 26.926.453 27.21 27.21 0 0 1 9.766 9.943 27.254 27.254 0 0 1 3.566 13.481c0 15.036-12.174 15.559-27.192 15.559s-27.192-.523-27.192-15.559a27.18 27.18 0 0 1 2.331-11.046l12.7 3.959Z" fill="#1A75FF"/><path opacity=".1" d="M257.431 333.55a21.2 21.2 0 0 1 4.012-3.155c2.055-1.366 4.182-2.758 6.602-3.223 2.127-.406 4.32-.062 6.482-.187a15.194 15.194 0 0 0 9.941-4.557c1.542-1.602 2.759-3.57 4.618-4.789 2.001-1.339 4.542-1.602 6.918-1.272.692.098 1.376.238 2.051.42a27.21 27.21 0 0 1 1.605 9.234c0 15.036-12.175 15.558-27.193 15.558-7.288 0-13.903-.12-18.789-1.968l.816-1.526c.851-1.594 1.716-3.196 2.937-4.535Z" fill="#000"/><defs><linearGradient id="a" x1="244.218" y1="93.037" x2="362.112" y2="23.207" gradientUnits="userSpaceOnUse"><stop stop-color="gray" stop-opacity=".25"/><stop offset=".54" stop-color="gray" stop-opacity=".12"/><stop offset="1" stop-color="gray" stop-opacity=".1"/></linearGradient><linearGradient id="b" x1="-97370.5" y1="116087" x2="-95452.7" y2="68199" gradientUnits="userSpaceOnUse"><stop stop-color="gray" stop-opacity=".25"/><stop offset=".54" stop-color="gray" stop-opacity=".12"/><stop offset="1" stop-color="gray" stop-opacity=".1"/></linearGradient></defs></svg>